<svg width="348" height="93" viewBox="0 0 348 93" fill="none" xmlns="http://www.w3.org/2000/svg">
<g clip-path="url(#clip0_2330_27219)">
<path d="M46.5 91.6243C71.4215 91.6243 91.6243 71.4215 91.6243 46.5C91.6243 21.5786 71.4215 1.37573 46.5 1.37573C21.5786 1.37573 1.37573 21.5786 1.37573 46.5C1.37573 71.4215 21.5786 91.6243 46.5 91.6243Z" fill="#010A4F"/>
<path d="M46.5 93C20.8596 93 0 72.1404 0 46.5C0 20.8596 20.8596 0 46.5 0C72.1404 0 93 20.8596 93 46.5C93 72.1404 72.1404 93 46.5 93ZM46.5 2.74847C22.3756 2.74847 2.74848 22.3756 2.74848 46.5C2.74848 70.6244 22.3905 90.2515 46.5 90.2515C70.6095 90.2515 90.2486 70.6244 90.2486 46.5C90.2486 22.3756 70.6244 2.74847 46.5 2.74847Z" fill="#674FFF"/>
<path d="M36.458 37.9531C36.4511 38.0482 36.4741 38.1431 36.5236 38.2247L41.0984 45.9836C41.1403 46.0538 41.1998 46.1119 41.2709 46.1522C41.3421 46.1925 41.4225 46.2136 41.5043 46.2134H51.4954C51.5768 46.2139 51.657 46.193 51.7277 46.1526C51.7985 46.1123 51.8573 46.054 51.8983 45.9836L56.476 38.2247C56.5233 38.1423 56.5451 38.0478 56.5387 37.9531C56.485 37.1056 55.9419 32.8381 50.8329 29.093C50.7566 29.0388 50.6667 29.0067 50.5733 29.0004C47.5891 28.8363 46.7415 28.8154 46.4998 28.8154C46.2581 28.8154 45.4016 28.8363 42.4264 29.0004C42.333 29.0067 42.2431 29.0388 42.1668 29.093C37.0488 32.8381 36.5147 37.0996 36.458 37.9531Z" fill="white"/>
<path d="M28.192 40.281C29.0008 39.5379 30.1706 39.0396 31.1315 38.6516C32.3941 38.156 33.7054 37.7949 35.0438 37.5743C35.1357 37.5583 35.2207 37.515 35.2878 37.4501C35.3548 37.3852 35.4008 37.3016 35.4198 37.2102C35.8139 35.2037 36.6275 33.303 37.8072 31.6328C38.3877 30.8331 39.0564 30.1014 39.8006 29.4513C39.8961 29.3677 40.6959 28.8007 41.2002 28.4963C41.3009 28.4343 41.3746 28.3366 41.4067 28.2227C41.4387 28.1089 41.4268 27.9871 41.3733 27.8816C40.7021 26.6373 39.8241 25.5161 38.777 24.5661C38.7101 24.5038 38.6265 24.4624 38.5363 24.447C38.4462 24.4316 38.3535 24.4429 38.2697 24.4796C29.6155 28.2188 26.1896 34.1723 25.9569 36.0166C25.7838 37.4102 26.9088 39.3201 27.4908 40.1945C27.5279 40.2504 27.5767 40.2976 27.6338 40.3329C27.6908 40.3682 27.7549 40.3907 27.8215 40.3989C27.8881 40.4071 27.9557 40.4008 28.0197 40.3805C28.0836 40.3601 28.1424 40.3262 28.192 40.281Z" fill="white"/>
<path d="M26.6939 51.0718C26.7527 51.0217 26.7985 50.958 26.8271 50.8863C26.8557 50.8145 26.8663 50.7368 26.8581 50.66C26.5 47.5982 26.1807 44.5871 27.058 41.588C27.0777 41.5208 27.0823 41.4502 27.0715 41.381C27.0606 41.3119 27.0346 41.246 26.9953 41.1881C26.3747 40.3133 25.8287 39.388 25.363 38.4218C25.3262 38.3389 25.2662 38.2685 25.1901 38.219C25.1141 38.1696 25.0254 38.1433 24.9347 38.1433C24.8441 38.1433 24.7554 38.1696 24.6793 38.219C24.6033 38.2685 24.5433 38.3389 24.5065 38.4218C22.3877 42.9786 22.8891 48.2517 22.9249 48.5919C22.9249 48.5919 22.9249 48.6128 22.9249 48.6248C22.986 50.2819 23.3417 51.9149 23.9753 53.4473C24.0082 53.5245 24.0611 53.5917 24.1284 53.6418C24.1958 53.692 24.2752 53.7233 24.3587 53.7328C24.4421 53.7422 24.5266 53.7292 24.6034 53.6953C24.6802 53.6614 24.7467 53.6078 24.796 53.5398C25.6047 52.3909 26.2702 51.4478 26.6939 51.0718Z" fill="white"/>
<path d="M39.6155 64.2233C38.6098 63.4742 35.6077 60.8571 34.4081 55.6108C34.3901 55.534 34.3535 55.4627 34.3014 55.4034C34.2494 55.3441 34.1835 55.2985 34.1096 55.2706C30.1108 53.7517 28.4546 52.6117 27.8667 52.1253C27.7832 52.0548 27.6775 52.0161 27.5682 52.0161C27.459 52.0161 27.3533 52.0548 27.2698 52.1253C26.2691 53.0073 25.5014 54.1225 25.0347 55.3721C25.0093 55.4598 25.0093 55.5529 25.0347 55.6407C26.5268 61.4181 32.7011 66.0854 36.8671 68.0371C36.9549 68.0775 37.0532 68.0897 37.1483 68.0721C37.2434 68.0545 37.3307 68.0078 37.3982 67.9386C38.3039 66.9935 39.0961 65.9459 39.7588 64.8171C39.8105 64.7175 39.8245 64.6025 39.7982 64.4934C39.7718 64.3843 39.707 64.2883 39.6155 64.2233Z" fill="white"/>
<path d="M51.7879 28.4963C52.2773 28.7947 53.092 29.3677 53.1845 29.4513C53.9304 30.1005 54.6002 30.8324 55.181 31.6327C56.3596 33.3036 57.173 35.204 57.5683 37.2102C57.5879 37.3018 57.6344 37.3855 57.702 37.4504C57.7695 37.5153 57.855 37.5585 57.9473 37.5743C59.2856 37.7953 60.5969 38.1563 61.8596 38.6516C62.8176 39.0395 63.9903 39.5469 64.7961 40.281C64.8463 40.3259 64.9057 40.3595 64.9702 40.3794C65.0346 40.3993 65.1026 40.4051 65.1694 40.3963C65.2363 40.3875 65.3005 40.3644 65.3576 40.3285C65.4147 40.2927 65.4634 40.2449 65.5004 40.1885C66.0972 39.2932 67.2043 37.3982 67.0313 36.0106C66.8015 34.1663 63.3756 28.2128 54.7184 24.4706C54.6349 24.4353 54.543 24.4247 54.4536 24.4401C54.3642 24.4554 54.2811 24.496 54.2141 24.5571C53.1623 25.5115 52.2803 26.6377 51.6059 27.8875C51.5535 27.9932 51.5431 28.1148 51.5769 28.2278C51.6107 28.3408 51.6861 28.4368 51.7879 28.4963Z" fill="white"/>
<path d="M57.4581 55.4885C57.4726 55.4053 57.4644 55.3197 57.4342 55.2408C56.154 51.9582 52.8176 48.2458 52.0835 47.458C52.039 47.4093 51.9845 47.3708 51.9237 47.345C51.863 47.3193 51.7974 47.3069 51.7314 47.3088L46.5001 47.4043L41.2658 47.3088C41.1998 47.3073 41.1344 47.3198 41.0737 47.3456C41.0129 47.3713 40.9584 47.4096 40.9136 47.458C40.1825 48.2458 36.8462 51.9522 35.5659 55.2408C35.5363 55.3198 35.527 55.405 35.5391 55.4885C36.0643 58.5175 38.8217 62.8416 41.1165 63.9905C43.2055 65.038 45.9569 64.9574 46.4881 64.9276C47.0313 64.9574 49.7708 65.038 51.8597 63.9905C54.1814 62.8416 56.9359 58.5175 57.4581 55.4885Z" fill="white"/>
<path d="M68.4936 38.4127C68.4563 38.33 68.3959 38.2599 68.3196 38.2107C68.2434 38.1614 68.1546 38.1353 68.0639 38.1353C67.9731 38.1353 67.8843 38.1614 67.8081 38.2107C67.7319 38.2599 67.6715 38.33 67.6342 38.4127C67.1704 39.3794 66.6253 40.3048 66.0048 41.1791C65.9641 41.2363 65.9372 41.3023 65.9264 41.3717C65.9155 41.441 65.9209 41.512 65.9421 41.579C66.8195 44.5781 66.5001 47.5892 66.1391 50.651C66.1316 50.7277 66.1426 50.8052 66.1712 50.8768C66.1997 50.9484 66.245 51.0122 66.3032 51.0628C66.7299 51.4388 67.3954 52.3818 68.2012 53.5218C68.2495 53.5907 68.3155 53.6454 68.3923 53.68C68.4691 53.7146 68.5538 53.7279 68.6375 53.7184C68.7211 53.7089 68.8007 53.6771 68.8679 53.6262C68.935 53.5753 68.9871 53.5073 69.0188 53.4293C69.6505 51.8972 70.0071 50.2657 70.0723 48.6098C70.0708 48.5969 70.0708 48.5839 70.0723 48.571C70.1111 48.2248 70.6064 42.9607 68.4936 38.4127Z" fill="white"/>
<path d="M65.736 52.1431C65.655 52.0695 65.5503 52.0273 65.4409 52.024C65.3315 52.0207 65.2245 52.0566 65.1392 52.1252C64.5424 52.6146 62.8891 53.7546 58.8932 55.2735C58.8193 55.2994 58.7531 55.3436 58.7009 55.4021C58.6487 55.4606 58.6122 55.5313 58.5948 55.6078C57.4011 60.854 54.393 63.4742 53.3844 64.2232C53.2952 64.2909 53.2334 64.3886 53.2104 64.4982C53.1874 64.6079 53.2046 64.7221 53.259 64.82C53.9204 65.9488 54.7128 66.9955 55.6196 67.9385C55.686 68.0084 55.7727 68.0557 55.8674 68.0739C55.9621 68.0921 56.0601 68.0803 56.1478 68.04C60.3257 66.0973 66.4761 61.421 67.9802 55.6436C68.0071 55.5561 68.0071 55.4625 67.9802 55.375C67.5107 54.1288 66.7397 53.0184 65.736 52.1431Z" fill="white"/>
<path d="M46.5001 71.3377C39.9769 71.3298 33.7231 68.7349 29.1106 64.1223C24.498 59.5097 21.9032 53.256 21.8953 46.7328C21.9032 40.2099 24.4981 33.9565 29.1107 29.3444C33.7234 24.7323 39.9772 22.1381 46.5001 22.131C53.0227 22.1381 59.2762 24.7324 63.8884 29.3446C68.5006 33.9568 71.0948 40.2102 71.1019 46.7328C71.0948 53.2557 68.5007 59.5095 63.8885 64.1222C59.2764 68.7348 53.023 71.3298 46.5001 71.3377ZM46.5001 23.9961C40.4721 24.0032 34.6931 26.401 30.4306 30.6634C26.1682 34.9258 23.7705 40.7049 23.7634 46.7328C23.7705 52.7608 26.1682 58.5398 30.4306 62.8023C34.6931 67.0647 40.4721 69.4624 46.5001 69.4695C52.5291 69.464 58.3097 67.0669 62.5734 62.8044C66.8371 58.5418 69.2356 52.7618 69.2428 46.7328C69.2356 40.7038 66.8371 34.9239 62.5734 30.6613C58.3097 26.3987 52.5291 24.0016 46.5001 23.9961Z" fill="white"/>
<path d="M47.6906 85.6082C47.654 85.5862 47.6209 85.5591 47.5921 85.5277C47.4727 85.3904 47.4727 85.1755 47.4011 85.0173C47.3129 84.8303 47.185 84.6648 47.0263 84.5323C46.8675 84.3999 46.6817 84.3036 46.4819 84.2504C46.1499 84.1031 45.7917 84.0239 45.4285 84.0176C44.969 84.0385 44.5512 84.2892 44.1035 84.4056C43.7884 84.4454 43.4843 84.5468 43.2083 84.704C42.9666 84.8831 42.8352 85.1904 42.5726 85.3337C42.1728 85.5515 41.6475 85.3008 41.2268 85.4799C41.0322 85.5947 40.851 85.7308 40.6866 85.8857C40.4823 86.0291 40.2422 86.113 39.9931 86.1283C39.7439 86.1436 39.4954 86.0896 39.2751 85.9723C39.2373 85.9563 39.2032 85.9326 39.175 85.9029C39.1467 85.8731 39.1249 85.8378 39.111 85.7992C39.0722 85.65 39.2243 85.5485 39.2691 85.4232C39.3171 85.2639 39.3075 85.0928 39.2422 84.9398C39.1169 84.5608 38.908 84.2206 38.7588 83.8535C38.6384 83.4717 38.4826 83.102 38.2933 82.7493C38.0918 82.4524 37.8576 82.1791 37.595 81.9346C37.6427 81.8451 37.768 81.8541 37.8665 81.872C37.965 81.8899 38.0963 81.872 38.1202 81.7825C38.1441 81.6929 38.0247 81.6124 37.9411 81.5527C37.6905 81.3706 37.6696 81.0155 37.6726 80.7081V79.9203C37.6696 79.8972 37.6718 79.8737 37.6791 79.8515C37.6863 79.8293 37.6983 79.809 37.7143 79.792C37.7274 79.7845 37.742 79.78 37.757 79.7787C37.772 79.7775 37.7871 79.7794 37.8013 79.7845C37.8155 79.7896 37.8284 79.7977 37.8391 79.8083C37.8499 79.8189 37.8582 79.8316 37.8635 79.8457C37.8845 79.9056 37.8845 79.9708 37.8635 80.0307C37.974 79.5532 38.7827 79.1952 39.1706 79.037C39.8122 78.7774 41.0775 78.5356 41.3014 77.7538C41.3283 77.5897 41.3283 77.4224 41.3014 77.2584C41.29 77.1764 41.2958 77.0929 41.3184 77.0133C41.341 76.9337 41.3799 76.8596 41.4327 76.7958C41.467 76.7578 41.5136 76.733 41.5644 76.7259C41.6151 76.7188 41.6668 76.7298 41.7102 76.757C41.7586 76.8126 41.7924 76.8792 41.8087 76.951C41.8355 77.0196 41.8952 77.0943 41.9668 77.0793C42.0004 77.0683 42.0284 77.0448 42.0451 77.0137C42.0618 76.9826 42.0658 76.9462 42.0564 76.9122C42.0346 76.8449 41.999 76.7829 41.9519 76.7302C41.9069 76.6749 41.8855 76.6042 41.8922 76.5332C41.934 76.3303 42.1578 76.5034 42.2414 76.5511C42.2521 76.5588 42.2642 76.564 42.2771 76.5666C42.29 76.5692 42.3032 76.569 42.316 76.5661C42.3488 76.5661 42.3637 76.5123 42.3578 76.4765C42.319 76.3094 42.2384 76.2139 42.3578 76.0408C42.5965 75.7156 43.3038 75.1456 43.7275 75.3783C43.8648 75.45 43.9752 75.5604 44.1035 75.641C44.301 75.7612 44.5346 75.8078 44.763 75.7723C44.7269 75.6249 44.7178 75.4722 44.7362 75.3216C44.7959 75.1903 44.9481 75.1277 45.0018 74.9785C45.0555 74.8292 45.0316 74.7517 45.0704 74.6442C45.1184 74.5478 45.1926 74.4667 45.2843 74.4102C45.3761 74.3538 45.4819 74.3242 45.5897 74.3249C45.6973 74.3259 45.8049 74.3209 45.912 74.31C46.1626 74.2712 46.1089 74.1071 46.2671 73.9817C46.3477 73.9191 46.4641 73.9608 46.5655 74.0026C46.9087 74.2033 47.3071 74.289 47.7025 74.2473C47.7925 74.2205 47.8843 74.1995 47.977 74.1847C48.171 74.1668 48.3889 74.3339 48.2755 74.5398C48.221 74.6127 48.1589 74.6797 48.0904 74.7397C47.9338 74.9437 47.8311 75.1838 47.792 75.438C47.769 75.5092 47.7619 75.5846 47.7711 75.6589C47.8039 75.7725 47.8771 75.8701 47.977 75.9334C48.4217 76.2676 49.0126 76.387 49.4184 76.772C49.4989 76.8727 49.6009 76.9543 49.7168 77.0107C49.7886 77.0272 49.8634 77.0249 49.934 77.004C50.0046 76.9831 50.0686 76.9443 50.1197 76.8913C50.2213 76.7835 50.2968 76.6539 50.3405 76.5123C50.639 75.6559 50.4629 74.6651 50.8658 73.8504C50.9135 73.7519 51.009 73.6415 51.1105 73.6803C51.2119 73.7191 51.2089 73.7878 51.2298 73.8594C51.3283 74.2055 51.4119 74.5577 51.4775 74.9128C51.5282 75.1784 51.5581 75.4858 51.8595 75.3724C51.9669 75.3306 52.0744 75.4291 52.137 75.5246C52.3419 75.9138 52.4619 76.3419 52.4892 76.7809C52.5192 77.2201 52.6885 77.6383 52.9726 77.9746C53.271 78.273 53.7455 78.4163 53.8679 78.8161C53.9365 79.0519 53.8679 79.3473 54.038 79.5234C54.1335 79.6189 54.2827 79.6488 54.3782 79.7442C54.5274 79.8964 54.4946 80.1232 54.5841 80.3023C54.6736 80.4813 54.9123 80.6455 55.0586 80.8245C55.2506 81.1363 55.348 81.497 55.3391 81.863C55.4004 82.323 55.3944 82.7895 55.3212 83.2477C55.0466 84.5429 53.7336 85.4292 53.4769 86.7273C53.4322 86.966 53.3874 87.2585 53.1606 87.348C53.0084 87.4077 52.8353 87.348 52.6712 87.348C52.337 87.3749 51.9699 87.9717 51.6238 87.6822C51.5014 87.5778 51.4507 87.3838 51.2925 87.3629C51.1343 87.342 51.0478 87.6375 50.8717 87.6942C50.6957 87.7509 50.5464 87.5659 50.3853 87.4704C50.2284 87.4011 50.0609 87.3588 49.8899 87.345C49.4692 87.2615 49.4274 86.9243 49.3259 86.5691C49.2925 86.4182 49.2158 86.2802 49.1051 86.1722C49.0491 86.1269 48.9829 86.0956 48.9123 86.081C48.8417 86.0665 48.7686 86.0691 48.6992 86.0887C48.6992 85.9812 48.7708 85.8738 48.7828 85.7574C48.7926 85.6971 48.7902 85.6354 48.7759 85.5759C48.7615 85.5165 48.7355 85.4605 48.6992 85.4113C48.6468 85.4947 48.6019 85.5826 48.5649 85.6739C48.5459 85.7197 48.5158 85.7601 48.4772 85.7914C48.4386 85.8226 48.3929 85.8438 48.3441 85.8529C48.2828 85.8543 48.2222 85.8399 48.168 85.8111C48.0033 85.7575 47.8435 85.6896 47.6906 85.6082Z" fill="white"/>
<path d="M24.4349 77.5509C25.4199 78.4365 26.5997 79.0775 27.8787 79.422C28.6476 79.6311 29.4583 79.6311 30.2272 79.422C31.0681 79.1509 31.7879 78.5946 32.2625 77.8494C32.2958 77.8028 32.3136 77.747 32.3136 77.6897C32.3136 77.6325 32.2958 77.5766 32.2625 77.53C32.0133 77.2047 31.7105 76.9242 31.3672 76.7004C31.0644 76.4948 30.7281 76.3433 30.3735 76.2528C29.6575 76.0738 28.9134 76.0363 28.183 76.1424C26.9226 76.3216 25.6857 76.6388 24.4945 77.0884C24.4501 77.1057 24.4111 77.1346 24.3817 77.1722C24.3522 77.2098 24.3335 77.2546 24.3274 77.3019C24.3213 77.3493 24.328 77.3974 24.3469 77.4412C24.3659 77.485 24.3962 77.5229 24.4349 77.5509Z" fill="white"/>
<path d="M29.3558 70.1051C30.2824 70.4882 31.1317 71.0362 31.8626 71.7225C32.3343 72.1885 32.6936 72.756 32.913 73.3817C33.1816 74.1849 33.23 75.0453 33.0533 75.8735C33.0441 75.9288 33.0179 75.9798 32.9783 76.0194C32.9387 76.0589 32.8877 76.0852 32.8324 76.0944C32.4348 76.1527 32.0296 76.1345 31.6388 76.0406C31.2931 75.9445 30.9676 75.7868 30.6779 75.5751C30.1191 75.1297 29.692 74.5407 29.4424 73.8711C29.0289 72.7514 28.8718 71.5532 28.9828 70.3647C28.987 70.3217 29.0005 70.2801 29.0223 70.2428C29.0442 70.2055 29.0739 70.1734 29.1094 70.1487C29.1448 70.124 29.1852 70.1073 29.2278 70.0998C29.2704 70.0923 29.314 70.094 29.3558 70.1051Z" fill="white"/>
<path d="M18.8305 73.0058C19.6299 74.0601 20.6598 74.9175 21.8415 75.5126C22.2039 75.6756 22.5818 75.8016 22.9696 75.8886C23.3621 75.9687 23.7645 75.9898 24.1632 75.9513C25.0421 75.8552 25.8579 75.4489 26.4641 74.8053C26.5047 74.7652 26.5316 74.7133 26.5407 74.6569C26.5498 74.6006 26.5407 74.5428 26.5148 74.492C26.3289 74.1282 26.0883 73.7951 25.8016 73.5042C25.537 73.2482 25.2352 73.0339 24.9063 72.8685C24.5794 72.7085 24.2349 72.5873 23.8797 72.5075C23.5173 72.4195 23.1478 72.3635 22.7756 72.3404C22.0489 72.2921 21.3195 72.301 20.5941 72.3672C19.9257 72.4179 19.3467 72.5045 18.9797 72.5671C18.9327 72.5748 18.8887 72.5951 18.8524 72.6259C18.8161 72.6566 18.7888 72.6967 18.7735 72.7417C18.7582 72.7868 18.7554 72.8351 18.7654 72.8817C18.7755 72.9282 18.7979 72.9711 18.8305 73.0058Z" fill="white"/>
<path d="M25.1033 66.6435C25.9423 67.2002 26.67 67.9086 27.249 68.7324C27.9234 69.765 28.3561 71.1198 27.613 73.0297C27.5926 73.0822 27.5564 73.1271 27.5093 73.1581C27.4623 73.1891 27.4067 73.2047 27.3504 73.2028C26.9516 73.1855 26.561 73.0838 26.2045 72.9044C25.8803 72.7493 25.5909 72.53 25.354 72.2598C25.1174 71.9937 24.925 71.6915 24.784 71.3645C24.6419 71.0368 24.5358 70.6946 24.4677 70.3439C24.3476 69.6681 24.3275 68.9784 24.408 68.2967C24.4691 67.7925 24.5689 67.2936 24.7064 66.8046C24.7214 66.7676 24.7437 66.7339 24.7719 66.7057C24.8001 66.6774 24.8338 66.6551 24.8708 66.6401C24.9078 66.6251 24.9474 66.6176 24.9874 66.6182C25.0273 66.6188 25.0667 66.6274 25.1033 66.6435Z" fill="white"/>
<path d="M13.9664 67.0849C14.5268 68.284 15.3596 69.3356 16.3985 70.1557C17.0272 70.644 17.7734 70.958 18.5621 71.0659C19.4419 71.1474 20.3225 70.9183 21.0509 70.4183C21.0988 70.3867 21.1357 70.341 21.1565 70.2876C21.1774 70.2341 21.1811 70.1755 21.1673 70.1199C21.0642 69.7242 20.8969 69.3482 20.6719 69.0067C20.4734 68.6985 20.223 68.4269 19.9319 68.204C19.3441 67.7587 18.675 67.4323 17.9623 67.2431C17.2619 67.0482 16.5476 66.9075 15.8256 66.8223C15.1571 66.7387 14.5812 66.697 14.2111 66.685C14.1631 66.6822 14.1151 66.6924 14.0724 66.7147C14.0297 66.737 13.9939 66.7704 13.9687 66.8115C13.9436 66.8526 13.9301 66.8998 13.9297 66.9479C13.9293 66.9961 13.942 67.0434 13.9664 67.0849Z" fill="white"/>
<path d="M21.4119 62.1671C22.1132 62.8845 22.6794 63.7226 23.0831 64.641C23.3364 65.2537 23.4456 65.9163 23.4024 66.5778C23.3333 67.4225 23.0396 68.2333 22.5519 68.9264C22.5209 68.9749 22.4753 69.0123 22.4216 69.0332C22.368 69.0542 22.3091 69.0575 22.2534 69.0427C21.8713 68.939 21.5126 68.7627 21.197 68.5235C20.916 68.2992 20.6774 68.0263 20.4928 67.7178C20.1551 67.0878 19.9933 66.3786 20.0242 65.6646C20.0456 64.9791 20.1673 64.3005 20.3853 63.6503C20.5451 63.1709 20.7447 62.7057 20.9822 62.2596C21.0031 62.224 21.0312 62.1931 21.0647 62.1689C21.0982 62.1447 21.1363 62.1277 21.1767 62.119C21.2171 62.1103 21.2589 62.1101 21.2994 62.1184C21.3398 62.1267 21.3782 62.1433 21.4119 62.1671Z" fill="white"/>
<path d="M10.5913 60.699C10.9129 61.9845 11.5255 63.1791 12.3818 64.1905C12.6519 64.4837 12.9519 64.7477 13.2771 64.9783C13.6037 65.2053 13.9629 65.3814 14.3424 65.5005C15.1886 65.7559 16.098 65.7031 16.9089 65.3513C16.9615 65.3291 17.0059 65.291 17.0359 65.2423C17.0658 65.1936 17.0799 65.1368 17.076 65.0798C17.062 64.8685 17.0301 64.6589 16.9805 64.4531C16.9381 64.2617 16.8802 64.0741 16.8074 63.8921C16.6658 63.5552 16.4747 63.2414 16.2404 62.961C15.7473 62.4101 15.1512 61.961 14.4857 61.639C13.8373 61.3078 13.1638 61.0284 12.4713 60.8034C11.8357 60.5915 11.2777 60.4423 10.9076 60.3558C10.861 60.3418 10.8114 60.3412 10.7645 60.3541C10.7175 60.3669 10.6752 60.3927 10.6422 60.4285C10.6092 60.4643 10.587 60.5086 10.578 60.5564C10.569 60.6042 10.5736 60.6536 10.5913 60.699Z" fill="white"/>
<path d="M18.8541 57.3267C19.405 58.1644 19.7946 59.0975 20.003 60.0782C20.2239 61.2897 20.0776 62.7251 18.6542 64.1755C18.6158 64.2136 18.5668 64.2394 18.5136 64.2495C18.4605 64.2596 18.4055 64.2535 18.3558 64.2322C18.1697 64.1415 17.9919 64.0347 17.8246 63.9129C17.6737 63.7966 17.5348 63.6656 17.4098 63.5219C17.1718 63.2517 16.9911 62.936 16.8786 62.5938C16.6695 61.9162 16.6458 61.1948 16.8099 60.5049C16.9682 59.8366 17.2215 59.1944 17.562 58.598C17.8111 58.1605 18.0945 57.7434 18.4095 57.3506C18.4357 57.3178 18.4687 57.2909 18.5061 57.2716C18.5435 57.2524 18.5845 57.2413 18.6265 57.2391C18.6684 57.2368 18.7104 57.2435 18.7497 57.2586C18.7889 57.2737 18.8245 57.2969 18.8541 57.3267Z" fill="white"/>
<path d="M8.4514 53.3309C8.49284 54.6557 8.84336 55.9525 9.47499 57.1178C9.86002 57.8162 10.4233 58.4 11.1074 58.8099C11.8843 59.2301 12.7834 59.3662 13.6499 59.1948C13.7062 59.1847 13.7579 59.157 13.7976 59.1157C13.8372 59.0745 13.8628 59.0217 13.8707 58.965C13.9353 58.5613 13.9303 58.1495 13.8558 57.7475C13.7952 57.3858 13.672 57.0374 13.4917 56.7179C13.1281 56.076 12.6414 55.5121 12.0593 55.0587C11.058 54.2758 9.97429 53.6043 8.82742 53.0563C8.78432 53.0361 8.7366 53.0279 8.68924 53.0325C8.64188 53.0371 8.59662 53.0543 8.55819 53.0823C8.51977 53.1104 8.48959 53.1483 8.4708 53.192C8.45202 53.2357 8.44531 53.2837 8.4514 53.3309Z" fill="white"/>
<path d="M17.2368 51.7523C17.5985 52.6863 17.7876 53.6782 17.7949 54.6798C17.7851 55.3421 17.6238 55.9934 17.3234 56.5837C16.9278 57.3333 16.3383 57.963 15.6164 58.4071C15.5722 58.4366 15.5203 58.4524 15.4672 58.4524C15.4141 58.4524 15.3621 58.4366 15.318 58.4071C15.0022 58.1626 14.7375 57.8584 14.5391 57.5118C14.3716 57.1944 14.2615 56.8499 14.2138 56.4942C14.1506 55.7826 14.2805 55.0671 14.5898 54.4232C15.1155 53.3519 15.8741 52.4118 16.8101 51.6717C16.843 51.6478 16.8804 51.6309 16.9201 51.622C16.9598 51.6131 17.0009 51.6124 17.0408 51.6199C17.0808 51.6275 17.1188 51.6431 17.1525 51.6659C17.1862 51.6886 17.2149 51.718 17.2368 51.7523Z" fill="white"/>
<path d="M7.87847 46.1388C7.65769 47.4434 7.74766 48.7818 8.14109 50.0451C8.26945 50.4206 8.43857 50.7808 8.64542 51.1195C8.85747 51.4526 9.11569 51.754 9.41236 52.0147C10.09 52.5818 10.946 52.8914 11.8296 52.8891C11.8868 52.8916 11.9433 52.8755 11.9906 52.8432C12.0379 52.8109 12.0736 52.7642 12.0922 52.71C12.3647 51.9782 12.3888 51.177 12.1608 50.4301C12.0567 50.0818 11.9073 49.7486 11.7162 49.4393C11.529 49.1178 11.3154 48.8123 11.0776 48.5262C10.9582 48.3799 10.8329 48.2278 10.7045 48.0994C10.5762 47.9711 10.4539 47.8249 10.3255 47.6936C10.0689 47.434 9.80328 47.1892 9.54963 46.9654C9.04231 46.5178 8.60065 46.1597 8.30223 45.9389C8.26336 45.9112 8.21782 45.8943 8.17028 45.8901C8.12275 45.8859 8.07494 45.8943 8.03178 45.9147C7.98862 45.9351 7.95167 45.9666 7.92472 46.006C7.89777 46.0454 7.88181 46.0912 7.87847 46.1388Z" fill="white"/>
<path d="M16.8041 46.291C16.9705 47.2796 16.9614 48.2898 16.7772 49.2753C16.4788 50.4689 15.8013 51.7343 13.9153 52.5042C13.8644 52.5237 13.8088 52.5276 13.7557 52.5153C13.7025 52.5031 13.6542 52.4753 13.6169 52.4356C13.3638 52.1533 13.1707 51.8226 13.0491 51.4636C12.9276 51.1045 12.8801 50.7245 12.9096 50.3466C12.9379 50.0002 13.0153 49.6596 13.1394 49.3349C13.2778 49.0043 13.454 48.6909 13.6647 48.4009C13.7661 48.2547 13.8765 48.1025 13.9899 47.9801C14.1033 47.8578 14.2287 47.7175 14.354 47.5951C14.5901 47.3622 14.8403 47.144 15.1031 46.9416C15.5061 46.6345 15.9344 46.362 16.3833 46.1269C16.4204 46.1034 16.4626 46.089 16.5063 46.0848C16.5501 46.0806 16.5942 46.0867 16.6351 46.1027C16.6761 46.1186 16.7127 46.144 16.742 46.1767C16.7714 46.2095 16.7926 46.2486 16.8041 46.291Z" fill="white"/>
<path d="M8.79485 38.5292C8.32068 39.7641 8.1359 41.0912 8.2547 42.4087C8.29715 42.8043 8.39147 43.1926 8.53522 43.5636C8.67024 43.9348 8.8582 44.2846 9.09327 44.6021C9.64358 45.2956 10.4198 45.774 11.2867 45.9539C11.3429 45.9676 11.4021 45.9632 11.4557 45.9412C11.5093 45.9192 11.5546 45.8809 11.5851 45.8316C12.4803 44.3067 12.1461 42.8772 11.4418 41.5254C10.8291 40.4126 10.0955 39.3708 9.25441 38.4188C9.22162 38.3837 9.18009 38.3579 9.13407 38.344C9.08804 38.3302 9.03916 38.3288 8.99243 38.34C8.9457 38.3513 8.9028 38.3747 8.86809 38.4079C8.83337 38.4412 8.8081 38.483 8.79485 38.5292Z" fill="white"/>
<path d="M17.4965 40.5167C17.4775 40.9389 17.4327 41.3594 17.3623 41.7761C17.266 42.3468 17.0985 42.9032 16.8639 43.4323C16.7289 43.7196 16.5702 43.9951 16.3894 44.2559C16.1883 44.5343 15.9515 44.7852 15.6851 45.002C15.0287 45.5337 14.243 45.8818 13.4082 46.0107C13.3509 46.0235 13.2911 46.0177 13.2374 45.9941C13.1837 45.9705 13.1389 45.9303 13.1098 45.8794C13.0089 45.6985 12.925 45.5087 12.8591 45.3124C12.7939 45.1327 12.7538 44.9449 12.7397 44.7543C12.7112 44.397 12.7455 44.0374 12.8412 43.6919C12.9361 43.3502 13.0907 43.0279 13.2978 42.74C13.5001 42.4473 13.7332 42.1772 13.9931 41.9342C14.8975 41.154 15.9651 40.5861 17.1176 40.272C17.1586 40.2558 17.2029 40.2497 17.2467 40.254C17.2906 40.2584 17.3328 40.2731 17.3699 40.297C17.4069 40.321 17.4377 40.3534 17.4598 40.3916C17.4818 40.4298 17.4944 40.4727 17.4965 40.5167Z" fill="white"/>
<path d="M11.0865 31.6773C10.8001 32.1568 10.5468 32.6553 10.3285 33.1694C10.195 33.5131 10.0834 33.865 9.9943 34.2228C9.89321 34.6019 9.82727 34.9895 9.79734 35.3807C9.77117 35.7792 9.78719 36.1793 9.84509 36.5744C9.89826 36.9671 10.0162 37.3483 10.1942 37.7024C10.5973 38.4868 11.261 39.1062 12.0713 39.4541C12.124 39.4779 12.1828 39.4847 12.2395 39.4735C12.2962 39.4622 12.348 39.4336 12.3876 39.3915C12.9235 38.8244 13.2607 38.0986 13.3486 37.3234C13.3828 36.9606 13.3738 36.5949 13.3217 36.2342C13.279 35.8653 13.2041 35.5008 13.0979 35.1449C12.883 34.4481 12.6197 33.767 12.31 33.1067C12.0116 32.5099 11.7311 31.9817 11.5521 31.6624C11.5278 31.6214 11.493 31.5876 11.4513 31.5647C11.4096 31.5418 11.3625 31.5305 11.3149 31.532C11.2673 31.5335 11.221 31.5478 11.1808 31.5734C11.1406 31.5989 11.1081 31.6348 11.0865 31.6773Z" fill="white"/>
<path d="M19.2305 35.333C19.1395 35.7416 19.0117 36.1412 18.8485 36.5267C18.7507 36.7861 18.6391 37.0401 18.5143 37.2877C18.3745 37.5533 18.2159 37.8086 18.0398 38.0516C17.8592 38.3137 17.6489 38.554 17.4131 38.7678C17.1582 38.9953 16.8802 39.1953 16.5835 39.3647C15.8328 39.7602 14.99 39.9477 14.1424 39.9078C14.0862 39.907 14.0316 39.8888 13.9861 39.8557C13.9407 39.8225 13.9067 39.7761 13.8888 39.7228C13.7657 39.3648 13.7175 38.9854 13.7473 38.6081C13.7771 38.2307 13.8842 37.8636 14.0618 37.5294C14.2227 37.2158 14.4321 36.9298 14.6826 36.6819C14.9429 36.435 15.229 36.2169 15.536 36.0313C16.1249 35.6771 16.7652 35.4164 17.434 35.2584C17.9234 35.1335 18.4226 35.0506 18.9261 35.0107C18.9679 35.0097 19.0094 35.0176 19.048 35.0337C19.0865 35.0497 19.1213 35.0738 19.15 35.1041C19.1787 35.1345 19.2007 35.1706 19.2145 35.21C19.2284 35.2494 19.2338 35.2913 19.2305 35.333Z" fill="white"/>
<path d="M14.9301 25.0464C14.5496 25.456 14.1995 25.8929 13.8826 26.3535C13.6767 26.6576 13.4942 26.9768 13.3365 27.3084C13.1609 27.6597 13.0152 28.025 12.9008 28.4007C12.7945 28.7838 12.7275 29.1768 12.7009 29.5735C12.6727 29.9686 12.709 30.3657 12.8083 30.7492C13.0387 31.6021 13.5603 32.3474 14.2825 32.8561C14.3293 32.889 14.385 32.9066 14.4422 32.9066C14.4993 32.9066 14.5551 32.889 14.6018 32.8561C14.9401 32.6249 15.2351 32.336 15.4732 32.0026C15.6859 31.7054 15.8538 31.3787 15.9716 31.0327C16.0797 30.6855 16.1478 30.3271 16.1745 29.9644C16.2059 29.593 16.2059 29.2197 16.1745 28.8483C16.1097 28.1227 15.993 27.4026 15.8254 26.6937C15.6702 26.0402 15.4911 25.4732 15.3837 25.127C15.3672 25.0836 15.3397 25.0453 15.304 25.0157C15.2682 24.9862 15.2254 24.9664 15.1797 24.9582C15.1341 24.9501 15.087 24.954 15.0433 24.9694C14.9995 24.9849 14.9606 25.0114 14.9301 25.0464Z" fill="white"/>
<path d="M22.1492 30.3076C21.9747 30.6939 21.767 31.0643 21.5285 31.4147C21.3733 31.6266 21.2301 31.8653 21.0421 32.0892C20.8495 32.3212 20.6401 32.5387 20.4154 32.7397C20.1843 32.9568 19.9301 33.148 19.6574 33.3097C19.3603 33.4779 19.0462 33.6139 18.7203 33.7155C17.9034 33.9446 17.0402 33.9518 16.2196 33.7364C16.165 33.7249 16.1155 33.6965 16.0781 33.6553C16.0406 33.614 16.017 33.562 16.0107 33.5067C15.9714 33.1056 16.0078 32.7006 16.1181 32.313C16.225 31.9698 16.4007 31.652 16.6344 31.3789C16.8575 31.105 17.1235 30.8692 17.4222 30.6806C17.7276 30.4941 18.0516 30.34 18.3891 30.221C19.0389 29.9974 19.7194 29.8756 20.4064 29.8599C20.9047 29.8362 21.404 29.8571 21.8985 29.9226C21.9438 29.9235 21.9882 29.9354 22.0279 29.9574C22.0675 29.9793 22.1012 30.0107 22.1259 30.0487C22.1506 30.0866 22.1657 30.1301 22.1697 30.1752C22.1738 30.2204 22.1668 30.2658 22.1492 30.3076Z" fill="white"/>
<path d="M19.7437 19.663C19.2902 19.9894 18.8604 20.3474 18.4575 20.7343C18.2037 21.0005 17.9637 21.2794 17.7383 21.5699C17.4939 21.8765 17.2819 22.2075 17.1056 22.5577C16.7204 23.2564 16.5307 24.0461 16.5565 24.8436C16.6127 25.7238 16.9785 26.5557 17.589 27.1922C17.6263 27.232 17.675 27.2594 17.7284 27.2706C17.7818 27.2818 17.8373 27.2763 17.8875 27.2548C18.2643 27.0943 18.6114 26.8713 18.914 26.5953C19.0482 26.468 19.1711 26.3292 19.2811 26.1805C19.3929 26.0409 19.4927 25.8922 19.5795 25.7359C19.7585 25.4189 19.8949 25.0798 19.9854 24.7272C20.0888 24.3706 20.1637 24.0064 20.2092 23.638C20.2548 23.2636 20.2797 22.887 20.2838 22.5099C20.2838 22.1459 20.2838 21.7907 20.2838 21.4535C20.2599 20.7851 20.2002 20.2001 20.1525 19.8301C20.1445 19.7869 20.1257 19.7464 20.098 19.7123C20.0702 19.6782 20.0344 19.6516 19.9937 19.635C19.953 19.6184 19.9088 19.6122 19.8651 19.6171C19.8214 19.622 19.7797 19.6378 19.7437 19.663Z" fill="white"/>
<path d="M25.7984 26.2224C25.5488 26.5659 25.2703 26.8874 24.9658 27.1833C24.7804 27.387 24.581 27.5775 24.369 27.7533C24.1422 27.9354 23.8885 28.1055 23.6319 28.2726C23.0678 28.6183 22.4336 28.8334 21.7757 28.9022C20.9291 28.9642 20.0811 28.8027 19.3167 28.4337C19.2651 28.4103 19.2218 28.3718 19.1925 28.3234C19.1632 28.2749 19.1493 28.2187 19.1526 28.1622C19.1952 27.7679 19.3116 27.3853 19.4957 27.0341C19.5812 26.8742 19.6811 26.7223 19.7942 26.5805C19.9102 26.447 20.0381 26.3242 20.1761 26.2135C20.4527 25.994 20.7592 25.8151 21.0863 25.6823C21.4214 25.5557 21.7698 25.4676 22.1248 25.4197C22.4728 25.371 22.824 25.3501 23.1753 25.357C23.5123 25.3718 23.8481 25.4067 24.181 25.4615C24.6771 25.5393 25.1661 25.657 25.6432 25.8136C25.6813 25.829 25.7157 25.8522 25.7444 25.8815C25.773 25.9109 25.7954 25.9458 25.8099 25.9842C25.8245 26.0226 25.831 26.0635 25.829 26.1045C25.827 26.1455 25.8166 26.1856 25.7984 26.2224Z" fill="white"/>
<path d="M64.1397 70.1052C63.2132 70.4883 62.3638 71.0363 61.6329 71.7226C61.1612 72.1886 60.8019 72.7561 60.5825 73.3819C60.3139 74.185 60.2655 75.0454 60.4422 75.8737C60.452 75.9291 60.4788 75.9802 60.5189 76.0198C60.559 76.0593 60.6105 76.0854 60.6661 76.0945C61.0637 76.1532 61.469 76.135 61.8597 76.0408C62.2054 75.9446 62.5309 75.7869 62.8206 75.5752C63.3794 75.1292 63.8073 74.5404 64.0591 73.8713C64.4701 72.7509 64.627 71.5532 64.5187 70.3648C64.5146 70.3211 64.501 70.2789 64.4788 70.2411C64.4566 70.2032 64.4264 70.1708 64.3902 70.146C64.354 70.1212 64.3128 70.1047 64.2695 70.0976C64.2262 70.0906 64.1819 70.0932 64.1397 70.1052Z" fill="white"/>
<path d="M69.0607 77.5507C68.0757 78.4362 66.8959 79.0773 65.6169 79.4218C64.848 79.6308 64.0373 79.6308 63.2684 79.4218C62.4275 79.1506 61.7077 78.5943 61.2331 77.8491C61.2002 77.8023 61.1826 77.7466 61.1826 77.6894C61.1826 77.6323 61.2002 77.5765 61.2331 77.5298C61.4831 77.2051 61.7857 76.9247 62.1284 76.7002C62.4323 76.4945 62.7695 76.343 63.1251 76.2525C63.8401 76.0732 64.5832 76.0357 65.3126 76.1421C66.5731 76.3208 67.8101 76.6381 69.0011 77.0881C69.0455 77.1054 69.0845 77.1344 69.1139 77.1719C69.1434 77.2095 69.1621 77.2543 69.1682 77.3017C69.1743 77.349 69.1676 77.3971 69.1487 77.4409C69.1297 77.4847 69.0994 77.5226 69.0607 77.5507Z" fill="white"/>
<path d="M68.392 66.6435C67.5536 67.1999 66.8268 67.9084 66.2493 68.7324C65.5719 69.765 65.1392 71.1198 65.8822 73.0297C65.903 73.082 65.9393 73.1266 65.9863 73.1576C66.0333 73.1885 66.0886 73.2043 66.1449 73.2028C66.5436 73.1855 66.9342 73.0838 67.2908 72.9044C67.6156 72.7489 67.9059 72.5297 68.1443 72.2598C68.3788 71.9922 68.571 71.6902 68.7143 71.3645C68.8537 71.0358 68.9597 70.6939 69.0306 70.3439C69.1482 69.6678 69.1673 68.9783 69.0873 68.2967C69.0277 67.7922 68.9279 67.2933 68.7889 66.8046C68.7739 66.7676 68.7516 66.7339 68.7234 66.7057C68.6952 66.6774 68.6615 66.6551 68.6245 66.6401C68.5875 66.6251 68.5478 66.6176 68.5079 66.6182C68.4679 66.6188 68.4285 66.6274 68.392 66.6435Z" fill="white"/>
<path d="M74.665 73.0058C73.8656 74.0601 72.8357 74.9175 71.654 75.5126C71.2926 75.6756 70.9157 75.8016 70.5289 75.8886C70.1363 75.9684 69.734 75.9895 69.3352 75.9513C68.4566 75.8544 67.6411 75.4482 67.0344 74.8053C66.9938 74.7652 66.9669 74.7133 66.9578 74.6569C66.9487 74.6006 66.9577 74.5428 66.9837 74.492C67.1706 74.1289 67.4111 73.7959 67.6969 73.5042C67.9616 73.2484 68.2634 73.0341 68.5922 72.8685C68.9178 72.708 69.2615 72.5868 69.6158 72.5075C69.9782 72.4197 70.3477 72.3638 70.7199 72.3404C71.4467 72.2921 72.1761 72.301 72.9014 72.3672C73.5698 72.4179 74.1488 72.5045 74.5158 72.5671C74.5628 72.5748 74.6068 72.5951 74.6431 72.6259C74.6794 72.6566 74.7067 72.6967 74.722 72.7417C74.7373 72.7868 74.7401 72.8351 74.7301 72.8817C74.7201 72.9282 74.6976 72.9711 74.665 73.0058Z" fill="white"/>
<path d="M72.0834 62.1671C71.383 62.8852 70.817 63.7231 70.4123 64.641C70.159 65.2536 70.0497 65.9162 70.093 66.5777C70.162 67.4224 70.4557 68.2333 70.9435 68.9263C70.9744 68.9748 71.02 69.0123 71.0737 69.0332C71.1273 69.0541 71.1862 69.0574 71.2419 69.0427C71.6264 68.9408 71.9879 68.7666 72.3073 68.5294C72.5866 68.3042 72.824 68.0314 73.0085 67.7237C73.3462 67.0938 73.508 66.3846 73.4771 65.6705C73.4588 64.9862 73.3391 64.3084 73.1219 63.6592C72.9622 63.1798 72.7625 62.7146 72.5251 62.2685C72.5051 62.2304 72.4771 62.197 72.443 62.1708C72.4089 62.1445 72.3696 62.1259 72.3276 62.1162C72.2856 62.1066 72.2421 62.1061 72.2 62.1149C72.1578 62.1237 72.1181 62.1415 72.0834 62.1671Z" fill="white"/>
<path d="M79.5293 67.085C78.9689 68.2841 78.1361 69.3357 77.0972 70.1558C76.4691 70.6451 75.7226 70.9592 74.9336 71.066C74.0538 71.1475 73.1732 70.9184 72.4448 70.4184C72.3974 70.3864 72.3612 70.3405 72.3409 70.2871C72.3206 70.2337 72.3172 70.1753 72.3314 70.12C72.4317 69.7234 72.5992 69.3469 72.8267 69.0068C73.0242 68.6987 73.2736 68.4271 73.5638 68.2041C74.1516 67.7588 74.8207 67.4324 75.5334 67.2432C76.2367 67.0478 76.9541 66.9071 77.6791 66.8224C78.3475 66.7388 78.9235 66.6971 79.2935 66.6851C79.3409 66.684 79.3877 66.6954 79.4291 66.7184C79.4704 66.7414 79.505 66.775 79.529 66.8158C79.553 66.8565 79.5657 66.903 79.5658 66.9504C79.5658 66.9977 79.5532 67.0442 79.5293 67.085Z" fill="white"/>
<path d="M74.6414 57.3267C74.0889 58.1627 73.6981 59.095 73.4895 60.0752C73.2657 61.2868 73.4119 62.7222 74.8354 64.1725C74.874 64.2103 74.9229 64.2358 74.976 64.2459C75.0291 64.256 75.084 64.2501 75.1338 64.2292C75.3189 64.1385 75.4957 64.0317 75.662 63.9099C75.8128 63.7936 75.9518 63.6626 76.0768 63.519C76.3148 63.2487 76.4955 62.933 76.608 62.5909C76.8171 61.9132 76.8408 61.1918 76.6766 60.5019C76.521 59.8328 76.2677 59.1902 75.9246 58.595C75.6754 58.1575 75.392 57.7404 75.0771 57.3476C75.0506 57.3164 75.0181 57.291 74.9814 57.2729C74.9447 57.2548 74.9047 57.2445 74.8638 57.2425C74.8229 57.2406 74.7821 57.247 74.7439 57.2615C74.7056 57.276 74.6707 57.2982 74.6414 57.3267Z" fill="white"/>
<path d="M82.9075 60.6989C82.5845 61.984 81.9721 63.1782 81.117 64.1904C80.8469 64.4836 80.5468 64.7476 80.2217 64.9782C79.8961 65.2052 79.5379 65.3813 79.1593 65.5005C78.3131 65.7559 77.4038 65.703 76.5929 65.3513C76.5399 65.3291 76.4952 65.2911 76.4647 65.2425C76.4342 65.1939 76.4196 65.137 76.4228 65.0797C76.4367 64.8685 76.4687 64.6588 76.5183 64.453C76.5607 64.2616 76.6186 64.074 76.6914 63.892C76.834 63.555 77.0261 63.2412 77.2614 62.9609C77.7536 62.4103 78.3487 61.9613 79.0131 61.6389C79.6625 61.3077 80.337 61.0283 81.0304 60.8033C81.6631 60.5914 82.2241 60.4422 82.5941 60.3557C82.6404 60.3436 82.6891 60.3444 82.735 60.358C82.7809 60.3715 82.8221 60.3974 82.8544 60.4327C82.8866 60.468 82.9086 60.5115 82.918 60.5584C82.9273 60.6053 82.9237 60.6539 82.9075 60.6989Z" fill="white"/>
<path d="M76.2585 51.7523C75.8968 52.6863 75.7078 53.6782 75.7004 54.6798C75.7116 55.3419 75.8728 55.9929 76.1719 56.5837C76.5691 57.3322 77.1582 57.9615 77.8789 58.4071C77.9234 58.4359 77.9752 58.4512 78.0281 58.4512C78.0811 58.4512 78.1329 58.4359 78.1773 58.4071C78.4915 58.1617 78.755 57.8576 78.9532 57.5118C79.1203 57.194 79.2314 56.8497 79.2815 56.4942C79.3436 55.7823 79.2127 55.0669 78.9025 54.4232C78.3779 53.3513 77.6191 52.411 76.6822 51.6717C76.6494 51.6483 76.6122 51.6318 76.5728 51.6232C76.5335 51.6145 76.4927 51.6139 76.4531 51.6215C76.4135 51.629 76.3759 51.6445 76.3424 51.667C76.309 51.6894 76.2804 51.7185 76.2585 51.7523Z" fill="white"/>
<path d="M85.0591 53.3309C85.0177 54.6557 84.6671 55.9525 84.0355 57.1178C83.6507 57.8154 83.0887 58.399 82.4061 58.8099C81.6292 59.2301 80.7301 59.3662 79.8636 59.1948C79.8067 59.1852 79.7544 59.1578 79.7141 59.1165C79.6739 59.0752 79.6478 59.0221 79.6398 58.965C79.5749 58.5612 79.5809 58.1492 79.6577 57.7475C79.7159 57.3856 79.8382 57.0369 80.0187 56.7179C80.3824 56.076 80.8691 55.5121 81.4512 55.0587C82.4525 54.2758 83.5362 53.6043 84.6831 53.0563C84.7262 53.0361 84.7739 53.0279 84.8213 53.0325C84.8686 53.0371 84.9139 53.0543 84.9523 53.0823C84.9907 53.1104 85.0209 53.1483 85.0397 53.192C85.0585 53.2357 85.0652 53.2837 85.0591 53.3309Z" fill="white"/>
<path d="M76.7031 46.2913C76.5367 47.2799 76.5458 48.2901 76.73 49.2755C77.0284 50.4692 77.7058 51.7345 79.5918 52.5044C79.6428 52.5239 79.6984 52.5278 79.7515 52.5156C79.8047 52.5034 79.853 52.4756 79.8903 52.4358C80.1437 52.1537 80.3373 51.8231 80.4594 51.4641C80.5815 51.105 80.6295 50.725 80.6005 50.3469C80.5652 49.9956 80.4808 49.6511 80.3498 49.3233C80.2115 48.9926 80.0352 48.6792 79.8246 48.3892C79.7232 48.242 79.6157 48.1017 79.5023 47.9684C79.383 47.8341 79.2606 47.7058 79.1382 47.5835C78.9014 47.3513 78.6514 47.1331 78.3892 46.9299C77.9852 46.6241 77.5571 46.3517 77.109 46.1152C77.071 46.098 77.0299 46.089 76.9882 46.0886C76.9465 46.0883 76.9052 46.0967 76.867 46.1133C76.8288 46.1299 76.7944 46.1543 76.7662 46.1849C76.738 46.2156 76.7165 46.2518 76.7031 46.2913Z" fill="white"/>
<path d="M85.6168 46.1388C85.8376 47.4434 85.7476 48.7818 85.3542 50.0451C85.2269 50.4205 85.0587 50.7808 84.8528 51.1195C84.6396 51.4526 84.3804 51.754 84.0829 52.0147C83.4053 52.5818 82.5493 52.8914 81.6657 52.8891C81.6085 52.8916 81.552 52.8755 81.5046 52.8432C81.4573 52.8109 81.4217 52.7642 81.4031 52.71C81.1305 51.9782 81.1064 51.177 81.3344 50.4301C81.4398 50.0822 81.5892 49.7493 81.7791 49.4393C81.9662 49.1178 82.1799 48.8123 82.4177 48.5262C82.5371 48.3799 82.6624 48.2278 82.7907 48.0994C82.9191 47.9711 83.0414 47.8249 83.1697 47.6936C83.4264 47.434 83.692 47.1892 83.9456 46.9654C84.453 46.5178 84.8976 46.1597 85.193 45.9389C85.2319 45.9112 85.2774 45.8943 85.325 45.8901C85.3725 45.8859 85.4203 45.8943 85.4635 45.9147C85.5066 45.9351 85.5436 45.9666 85.5705 46.006C85.5975 46.0454 85.6135 46.0912 85.6168 46.1388Z" fill="white"/>
<path d="M75.999 40.5167C76.0195 40.9387 76.0644 41.3592 76.1333 41.7761C76.2296 42.3468 76.397 42.9032 76.6317 43.4323C76.7666 43.7196 76.9253 43.9951 77.1062 44.2559C77.3073 44.5343 77.5441 44.7852 77.8104 45.002C78.4668 45.5337 79.2525 45.8818 80.0874 46.0107C80.1446 46.0235 80.2045 46.0177 80.2582 45.9941C80.3119 45.9705 80.3566 45.9303 80.3858 45.8794C80.4867 45.6985 80.5706 45.5087 80.6365 45.3124C80.7029 45.133 80.7431 44.9451 80.7559 44.7543C80.7861 44.397 80.7518 44.0371 80.6544 43.6919C80.5607 43.3497 80.406 43.0272 80.1978 42.74C79.9965 42.4474 79.7644 42.1772 79.5055 41.9342C78.5996 41.1544 77.5312 40.5865 76.378 40.272C76.337 40.2558 76.2927 40.2497 76.2488 40.254C76.2049 40.2584 76.1627 40.2731 76.1257 40.297C76.0886 40.321 76.0578 40.3534 76.0358 40.3916C76.0138 40.4298 76.0012 40.4727 75.999 40.5167Z" fill="white"/>
<path d="M84.7011 38.5292C85.1753 39.7641 85.36 41.0912 85.2412 42.4087C85.1988 42.8043 85.1045 43.1926 84.9607 43.5636C84.8257 43.9348 84.6377 44.2846 84.4027 44.6021C83.8524 45.2956 83.0761 45.774 82.2093 45.9539C82.153 45.9676 82.0938 45.9632 82.0402 45.9412C81.9866 45.9192 81.9413 45.8809 81.9109 45.8316C81.0156 44.3067 81.3498 42.8772 82.0571 41.5254C82.6691 40.4129 83.4016 39.3711 84.2415 38.4188C84.2743 38.3837 84.3158 38.3579 84.3619 38.344C84.4079 38.3302 84.4568 38.3288 84.5035 38.34C84.5502 38.3513 84.5931 38.3747 84.6279 38.4079C84.6626 38.4412 84.6878 38.483 84.7011 38.5292Z" fill="white"/>
<path d="M74.2682 35.3331C74.3579 35.7418 74.4848 36.1413 74.6472 36.5268C74.7487 36.7686 74.8442 37.0312 74.9814 37.2878C75.1212 37.5541 75.2808 37.8095 75.4589 38.0518C75.6376 38.3145 75.847 38.5549 76.0826 38.768C76.3375 38.9954 76.6156 39.1955 76.9122 39.3648C77.6629 39.7603 78.5058 39.9478 79.3533 39.9079C79.4096 39.9072 79.4642 39.8889 79.5096 39.8558C79.555 39.8227 79.5891 39.7762 79.607 39.7229C79.7296 39.365 79.7778 38.9858 79.7486 38.6086C79.7193 38.2315 79.6132 37.8642 79.4369 37.5295C79.2739 37.2165 79.0636 36.9306 78.8132 36.682C78.5528 36.4352 78.2667 36.2171 77.9597 36.0314C77.3716 35.6778 76.7324 35.4171 76.0647 35.2585C75.5752 35.1339 75.0761 35.0511 74.5726 35.0108C74.53 35.0067 74.4871 35.0123 74.447 35.0273C74.4069 35.0424 74.3708 35.0663 74.3415 35.0974C74.3121 35.1285 74.2902 35.1659 74.2775 35.2068C74.2648 35.2476 74.2617 35.2909 74.2682 35.3331Z" fill="white"/>
<path d="M82.4091 31.6773C82.6955 32.1568 82.9488 32.6553 83.1671 33.1694C83.3033 33.5122 83.415 33.8642 83.5013 34.2228C83.602 34.6021 83.6689 34.9896 83.7012 35.3807C83.7249 35.7793 83.7079 36.1792 83.6505 36.5744C83.5987 36.9674 83.4806 37.3488 83.3014 37.7024C82.8983 38.4868 82.2346 39.1062 81.4243 39.4541C81.3721 39.4777 81.3138 39.4843 81.2576 39.4731C81.2014 39.4618 81.1501 39.4333 81.111 39.3915C80.5744 38.8245 80.2362 38.0989 80.147 37.3234C80.1128 36.9606 80.1218 36.5949 80.1739 36.2342C80.2166 35.8653 80.2915 35.5008 80.3977 35.1449C80.6136 34.448 80.8779 33.7669 81.1886 33.1067C81.487 32.5099 81.7645 31.9817 81.9435 31.6624C81.9678 31.6214 82.0026 31.5876 82.0443 31.5647C82.086 31.5418 82.1331 31.5305 82.1807 31.532C82.2283 31.5335 82.2746 31.5478 82.3148 31.5734C82.355 31.5989 82.3875 31.6348 82.4091 31.6773Z" fill="white"/>
<path d="M71.3466 30.3076C71.5211 30.6939 71.7288 31.0644 71.9673 31.4148C72.1225 31.6267 72.2657 31.8654 72.4567 32.0892C72.6474 32.3219 72.8559 32.5395 73.0804 32.7398C73.312 32.9576 73.5672 33.1488 73.8414 33.3097C74.1379 33.479 74.4521 33.6151 74.7784 33.7156C75.5943 33.9449 76.4566 33.9521 77.2762 33.7365C77.3309 33.7247 77.3806 33.6963 77.4186 33.6551C77.4565 33.614 77.4808 33.5622 77.4881 33.5067C77.5264 33.1054 77.489 32.7005 77.3777 32.313C77.2708 31.9698 77.0952 31.652 76.8614 31.379C76.6395 31.1051 76.3744 30.8693 76.0766 30.6807C75.7705 30.4936 75.4453 30.3396 75.1067 30.2211C74.4579 29.9978 73.7784 29.876 73.0924 29.86C72.5941 29.8361 72.0947 29.8571 71.6003 29.9227C71.5547 29.923 71.5099 29.9346 71.4699 29.9564C71.4299 29.9782 71.3958 30.0094 71.3707 30.0475C71.3457 30.0855 71.3303 30.1292 71.3261 30.1745C71.3219 30.2199 71.329 30.2656 71.3466 30.3076Z" fill="white"/>
<path d="M78.5565 25.0464C78.937 25.456 79.2871 25.8929 79.604 26.3535C79.811 26.6569 79.9936 26.9762 80.1501 27.3085C80.3257 27.6597 80.4714 28.025 80.5858 28.4007C80.6922 28.7838 80.7591 29.1768 80.7857 29.5735C80.8152 29.9687 80.7789 30.366 80.6783 30.7492C80.4491 31.6019 79.9286 32.3473 79.2071 32.8561C79.159 32.887 79.1031 32.9034 79.0459 32.9034C78.9888 32.9034 78.9329 32.887 78.8848 32.8561C78.5472 32.6241 78.2524 32.3353 78.0134 32.0026C77.8007 31.7054 77.6328 31.3787 77.515 31.0327C77.4069 30.6855 77.3388 30.3271 77.3121 29.9644C77.2807 29.593 77.2807 29.2197 77.3121 28.8483C77.3784 28.1229 77.495 27.4029 77.6613 26.6937C77.8164 26.0402 77.9985 25.4732 78.1029 25.127C78.1195 25.0836 78.1469 25.0453 78.1827 25.0157C78.2184 24.9862 78.2612 24.9664 78.3069 24.9582C78.3526 24.9501 78.3996 24.954 78.4433 24.9694C78.4871 24.9849 78.5261 25.0114 78.5565 25.0464Z" fill="white"/>
<path d="M67.6998 26.2225C67.9473 26.5667 68.2249 26.8883 68.5294 27.1834C68.7155 27.3864 68.9149 27.5768 69.1263 27.7534C69.3531 27.9354 69.6067 28.1055 69.8634 28.2726C70.4276 28.6179 71.0617 28.833 71.7195 28.9023C72.5661 28.9643 73.4141 28.8027 74.1785 28.4338C74.2301 28.4104 74.2734 28.3719 74.3027 28.3234C74.332 28.2749 74.3459 28.2187 74.3427 28.1622C74.3001 27.768 74.1836 27.3853 73.9995 27.0342C73.913 26.8748 73.8131 26.7231 73.7011 26.5806C73.5832 26.4477 73.4544 26.3249 73.3161 26.2135C73.0443 25.995 72.7429 25.8162 72.4208 25.6823C72.0846 25.5561 71.7352 25.468 71.3793 25.4197C71.0314 25.3709 70.6802 25.35 70.3289 25.357C69.995 25.3702 69.6622 25.4031 69.3322 25.4555C68.8361 25.5337 68.3472 25.6515 67.8699 25.8076C67.8298 25.8215 67.7931 25.8437 67.7622 25.8728C67.7314 25.9019 67.7071 25.9373 67.691 25.9766C67.6749 26.0158 67.6674 26.0581 67.6689 26.1005C67.6704 26.1429 67.681 26.1845 67.6998 26.2225Z" fill="white"/>
<path d="M73.7519 19.663C74.2059 19.9887 74.6357 20.3467 75.0381 20.7344C75.2926 20.9998 75.5327 21.2787 75.7573 21.5699C76.0016 21.8765 76.2136 22.2075 76.3899 22.5577C76.7765 23.2559 76.9663 24.046 76.939 24.8436C76.8828 25.7238 76.5171 26.5557 75.9065 27.1922C75.8694 27.2324 75.8208 27.26 75.7673 27.2713C75.7138 27.2825 75.6581 27.2768 75.6081 27.2549C75.2303 27.0943 74.8823 26.8714 74.5785 26.5954C74.4443 26.468 74.3215 26.3292 74.2114 26.1805C74.0997 26.041 73.9999 25.8922 73.913 25.7359C73.7341 25.4189 73.5976 25.0798 73.5072 24.7272C73.4037 24.3707 73.3289 24.0065 73.2833 23.638C73.2377 23.2637 73.2128 22.8871 73.2087 22.51C73.2087 22.1459 73.2087 21.7908 73.2087 21.4536C73.2326 20.7851 73.2923 20.2002 73.34 19.8301C73.3478 19.7864 73.3666 19.7454 73.3945 19.7109C73.4225 19.6765 73.4587 19.6496 73.4998 19.6329C73.541 19.6162 73.5857 19.6102 73.6297 19.6155C73.6738 19.6208 73.7158 19.6371 73.7519 19.663Z" fill="white"/>
<path d="M59.347 13.1216C59.2868 12.8335 59.1294 12.575 58.9012 12.3891C58.6731 12.2033 58.3879 12.1016 58.0937 12.101C57.7533 12.101 57.4269 12.2362 57.1863 12.4768C56.9457 12.7175 56.8105 13.0439 56.8105 13.3842C56.8101 13.6807 56.9125 13.9682 57.1002 14.1978C57.2879 14.4274 57.5493 14.5849 57.84 14.6435C57.5416 15.4731 56.7836 16.4072 55.9152 16.634C54.8439 16.9175 53.8859 16.1177 53.6979 15.0942C53.6233 14.6441 53.6293 14.1843 53.7158 13.7363L53.7696 13.5006C54.2025 13.5006 54.6177 13.3286 54.9238 13.0225C55.2299 12.7163 55.4019 12.3012 55.4019 11.8682C55.4019 11.6539 55.3597 11.4416 55.2777 11.2435C55.1956 11.0455 55.0754 10.8655 54.9238 10.714C54.7722 10.5624 54.5923 10.4421 54.3942 10.3601C54.1962 10.2781 53.9839 10.2359 53.7696 10.2359C53.5552 10.2359 53.3429 10.2781 53.1449 10.3601C52.9468 10.4421 52.7669 10.5624 52.6153 10.714C52.4637 10.8655 52.3435 11.0455 52.2614 11.2435C52.1794 11.4416 52.1372 11.6539 52.1372 11.8682C52.1371 12.151 52.2105 12.4289 52.3502 12.6748C52.4899 12.9207 52.691 13.126 52.934 13.2708C52.6654 14.1273 51.797 14.7062 50.9614 14.927C50.4633 15.0701 49.9363 15.0794 49.4335 14.9539C49.095 14.844 48.7891 14.6518 48.5432 14.3945C48.2974 14.1372 48.1193 13.8229 48.0249 13.4797C47.9161 13.1607 47.844 12.8303 47.8101 12.4949C47.8101 12.4412 47.8101 12.1219 47.7862 12.0891C47.7623 12.0562 49.0127 13.1395 50.0632 12.7187C51.1136 12.2979 51.7463 10.8267 49.8543 9.35551C47.9623 7.8843 46.4911 5.57153 46.4911 5.57153C46.4911 5.57153 45.0198 7.8843 43.1278 9.35551C41.2359 10.8267 41.8655 12.3009 42.916 12.7187C43.9664 13.1365 45.1959 12.0891 45.1959 12.0891C45.1959 12.0891 45.175 12.4412 45.1691 12.4949C45.1376 12.8304 45.0665 13.161 44.9572 13.4797C44.8624 13.8226 44.6841 14.1367 44.4383 14.394C44.1925 14.6512 43.8869 14.8436 43.5486 14.9539C43.0458 15.0794 42.5188 15.0701 42.0207 14.927C41.0986 14.6853 40.1347 14.0019 39.9855 12.9933C40.121 12.9006 40.2425 12.789 40.3466 12.662C40.4953 12.5304 40.5934 12.351 40.6241 12.1547C40.6803 11.9873 40.7096 11.812 40.7106 11.6355C40.7107 11.2066 40.542 10.795 40.241 10.4896C39.94 10.1841 39.5309 10.0094 39.1021 10.0031C38.6692 10.0031 38.254 10.1751 37.9479 10.4812C37.6418 10.7873 37.4698 11.2025 37.4698 11.6355C37.4698 12.0684 37.6418 12.4836 37.9479 12.7897C38.254 13.0958 38.6692 13.2678 39.1021 13.2678H39.1857C39.2275 13.4349 39.2931 13.7154 39.2991 13.7393C39.3826 14.1876 39.3887 14.6468 39.317 15.0971C39.129 16.1207 38.1681 16.9205 37.0968 16.637C36.2194 16.4072 35.4405 15.4433 35.163 14.6137C35.4233 14.5311 35.6505 14.3677 35.8115 14.1471C35.9725 13.9265 36.059 13.6603 36.0582 13.3872C36.0575 13.0471 35.922 12.7212 35.6815 12.4807C35.4411 12.2402 35.1151 12.1048 34.775 12.104C34.496 12.1045 34.2247 12.1959 34.0023 12.3645C33.7799 12.533 33.6185 12.7695 33.5426 13.038C33.0212 12.6169 32.4262 12.2962 31.7878 12.092C31.8296 12.092 31.9669 12.292 31.9938 12.3218C32.1788 12.5307 32.3698 12.7396 32.5429 12.9575C33.3417 13.8763 34.0419 14.8765 34.6318 15.9417C35.3355 17.3763 35.7944 18.9185 35.9896 20.5045C40.1944 18.6125 46.5 18.6125 46.5 18.6125C46.5 18.6125 52.8057 18.6125 57.0104 20.5045C57.2042 18.9183 57.6632 17.3758 58.3682 15.9417C58.958 14.8765 59.6582 13.8762 60.4572 12.9575C60.6332 12.7396 60.8212 12.5307 61.0092 12.3218C61.0361 12.292 61.1704 12.092 61.2151 12.092C60.5317 12.3112 59.8973 12.6608 59.347 13.1216Z" fill="#FFA235"/>
<path d="M66.5567 17.8934C66.5104 17.887 66.4632 17.89 66.418 17.9023C66.3729 17.9146 66.3307 17.936 66.2941 17.965C66.232 18.0357 66.1998 18.1277 66.2046 18.2217C66.3508 19.857 67.1983 25.0436 72.1342 24.3065H72.1789C72.1862 24.2931 72.1922 24.2792 72.1968 24.2647C73.295 19.3796 68.1831 18.156 66.5567 17.8934Z" fill="white"/>
<path d="M26.9384 17.8935C26.9852 17.887 27.0329 17.89 27.0785 17.9023C27.1241 17.9146 27.1668 17.9359 27.204 17.9651C27.235 17.9999 27.2586 18.0405 27.2734 18.0846C27.2883 18.1287 27.2941 18.1753 27.2906 18.2217C27.1473 19.8571 26.2998 25.0436 21.3609 24.3065H21.3191C21.3119 24.2932 21.3059 24.2792 21.3012 24.2648C20.206 19.3796 25.321 18.1561 26.9384 17.8935Z" fill="white"/>
</g>
<path d="M121.512 39.3527V15.3055H130.889C133.874 15.3055 136.237 15.9808 137.979 17.3313C139.722 18.6599 140.593 20.653 140.593 23.3104V23.8331C140.593 25.5757 140.19 27.0351 139.384 28.2113C138.6 29.3657 137.5 30.237 136.084 30.8251L142.194 39.3527H135.986L130.759 31.7072H126.871V39.3527H121.512ZM131.314 19.8471H126.871V27.4925H131.314C132.469 27.4925 133.394 27.144 134.091 26.4469C134.81 25.7499 135.17 24.8242 135.17 23.6698C135.17 22.5371 134.81 21.6223 134.091 20.9253C133.394 20.2065 132.469 19.8471 131.314 19.8471ZM144.881 39.3527V15.5016H159.649V19.9451H150.108V25.0093H159.126V29.4528H150.108V34.9092H159.877V39.3527H144.881ZM161.528 39.3527L169.402 15.5016H178.06L186.228 39.3527H180.674L178.746 33.4389H168.781L166.886 39.3527H161.528ZM170.186 28.9954H177.276L174.303 19.8797H173.094L170.186 28.9954ZM188.841 39.3527V15.5016H194.2V34.6478H203.544V39.3527H188.841ZM212.924 39.3527V15.5016H227.235V19.9451H218.282V25.3034H226.843V29.7469H218.282V39.3527H212.924ZM240.707 39.9734C238.463 39.9734 236.557 39.5596 234.989 38.7319C233.442 37.8824 232.266 36.6844 231.46 35.1379C230.654 33.5914 230.251 31.7617 230.251 29.6489V15.5016H235.61V29.8449C235.61 31.4132 236.045 32.6656 236.917 33.6023C237.81 34.5171 239.073 34.9745 240.707 34.9745C242.34 34.9745 243.593 34.5171 244.464 33.6023C245.357 32.6874 245.804 31.435 245.804 29.8449V15.5016H251.162V29.6489C251.162 31.7617 250.759 33.5914 249.953 35.1379C249.147 36.6844 247.971 37.8824 246.424 38.7319C244.878 39.5596 242.972 39.9734 240.707 39.9734ZM260.25 39.3527V20.1738H253.552V15.5016H272.339V20.1738H265.609V39.3527H260.25ZM275.212 39.516V15.3055H284.164C286.909 15.3055 289.011 15.8828 290.47 17.0372C291.951 18.1916 292.692 19.8362 292.692 21.9708V22.4609C292.692 23.55 292.485 24.4757 292.071 25.2381C291.679 25.9786 291.123 26.5885 290.405 27.0677C291.407 27.5251 292.202 28.1786 292.79 29.0281C293.378 29.8776 293.672 30.9667 293.672 32.2954V32.7528C293.672 34.9092 292.942 36.5755 291.483 37.7517C290.023 38.9279 287.9 39.516 285.112 39.516H275.212ZM284.491 19.4877H280.439V25.3034H284.491C285.493 25.3034 286.223 25.042 286.68 24.5193C287.159 23.9965 287.399 23.2995 287.399 22.4282C287.399 21.5134 287.159 20.7946 286.68 20.2718C286.223 19.749 285.493 19.4877 284.491 19.4877ZM285.373 29.3548H280.439V35.3339H285.373C286.375 35.3339 287.127 35.0834 287.627 34.5824C288.128 34.0597 288.379 33.3082 288.379 32.328C288.379 30.3459 287.377 29.3548 285.373 29.3548ZM308.644 39.9734C306.487 39.9734 304.603 39.6032 302.991 38.8626C301.401 38.1002 300.083 37.1091 299.038 35.8894C297.992 34.6478 297.208 33.3191 296.685 31.9033C296.184 30.4657 295.934 29.0716 295.934 27.7212V27.0024C295.934 25.5212 296.195 24.0618 296.718 22.6242C297.263 21.1866 298.069 19.8797 299.136 18.7035C300.203 17.5055 301.532 16.558 303.122 15.861C304.712 15.1422 306.553 14.7828 308.644 14.7828C310.735 14.7828 312.575 15.1422 314.165 15.861C315.755 16.558 317.084 17.5055 318.151 18.7035C319.219 19.8797 320.025 21.1866 320.569 22.6242C321.114 24.0618 321.386 25.5212 321.386 27.0024V27.7212C321.386 29.0716 321.125 30.4657 320.602 31.9033C320.079 33.3191 319.295 34.6478 318.249 35.8894C317.204 37.1091 315.875 38.1002 314.263 38.8626C312.673 39.6032 310.8 39.9734 308.644 39.9734ZM308.644 34.9745C310.147 34.9745 311.443 34.6369 312.532 33.9617C313.643 33.2864 314.492 32.3716 315.08 31.2172C315.668 30.0627 315.962 28.7885 315.962 27.3944C315.962 25.9133 315.657 24.6064 315.047 23.4737C314.459 22.3193 313.621 21.4153 312.532 20.7619C311.443 20.1084 310.147 19.7817 308.644 19.7817C307.141 19.7817 305.845 20.1084 304.756 20.7619C303.666 21.4153 302.828 22.3193 302.24 23.4737C301.652 24.6064 301.358 25.9133 301.358 27.3944C301.358 28.7885 301.652 30.0627 302.24 31.2172C302.828 32.3716 303.666 33.2864 304.756 33.9617C305.845 34.6369 307.141 34.9745 308.644 34.9745ZM324.948 39.3527V15.5016H330.306V34.6478H339.65V39.3527H324.948ZM121.578 76.3527V52.5016H126.936V76.3527H121.578ZM131.863 76.3527V52.5016H140.652L149.637 72.0072H150.094V52.5016H155.126V76.3527H146.271L137.286 56.8471H136.829V76.3527H131.863ZM168.284 76.9734C166.128 76.9734 164.298 76.6358 162.795 75.9606C161.314 75.2854 160.192 74.3487 159.43 73.1507C158.689 71.9527 158.319 70.5805 158.319 69.034H163.514C163.514 69.9488 163.884 70.7547 164.625 71.4518C165.387 72.127 166.607 72.4646 168.284 72.4646C169.765 72.4646 170.898 72.1814 171.682 71.6151C172.466 71.027 172.858 70.2755 172.858 69.3607C172.858 68.5983 172.531 67.9993 171.878 67.5637C171.225 67.1063 170.168 66.8122 168.709 66.6815L166.912 66.5182C164.538 66.3221 162.643 65.5924 161.227 64.3291C159.811 63.044 159.103 61.3341 159.103 59.1995C159.103 57.6748 159.462 56.357 160.181 55.2461C160.922 54.1352 161.946 53.2857 163.252 52.6976C164.559 52.0877 166.106 51.7828 167.892 51.7828C169.765 51.7828 171.366 52.1095 172.695 52.763C174.045 53.4164 175.08 54.3313 175.799 55.5075C176.518 56.6619 176.877 58.0124 176.877 59.5589H171.649C171.649 58.6876 171.333 57.9253 170.702 57.2718C170.07 56.6183 169.133 56.2916 167.892 56.2916C166.694 56.2916 165.801 56.5857 165.213 57.1738C164.625 57.7401 164.331 58.4153 164.331 59.1995C164.331 59.8747 164.559 60.4628 165.017 60.9638C165.496 61.4648 166.291 61.7589 167.402 61.846L169.232 62.0093C170.974 62.1618 172.51 62.543 173.838 63.1529C175.167 63.741 176.202 64.5578 176.942 65.6033C177.705 66.6271 178.086 67.8795 178.086 69.3607C178.086 70.8854 177.683 72.225 176.877 73.3794C176.093 74.5121 174.971 75.3943 173.512 76.0259C172.052 76.6576 170.31 76.9734 168.284 76.9734ZM185.315 76.3527V57.1738H178.617V52.5016H197.404V57.1738H190.673V76.3527H185.315ZM200.342 76.3527V52.5016H205.7V76.3527H200.342ZM215.364 76.3527V57.1738H208.666V52.5016H227.453V57.1738H220.723V76.3527H215.364ZM240.26 76.9734C238.016 76.9734 236.11 76.5596 234.542 75.7319C232.996 74.8824 231.819 73.6844 231.014 72.1379C230.208 70.5914 229.805 68.7617 229.805 66.6489V52.5016H235.163V66.8449C235.163 68.4132 235.599 69.6656 236.47 70.6023C237.363 71.5171 238.626 71.9745 240.26 71.9745C241.894 71.9745 243.146 71.5171 244.017 70.6023C244.91 69.6874 245.357 68.435 245.357 66.8449V52.5016H250.715V66.6489C250.715 68.7617 250.312 70.5914 249.506 72.1379C248.7 73.6844 247.524 74.8824 245.978 75.7319C244.431 76.5596 242.525 76.9734 240.26 76.9734ZM259.804 76.3527V57.1738H253.106V52.5016H271.893V57.1738H265.162V76.3527H259.804ZM274.765 76.3527V52.5016H289.533V56.9451H279.993V62.0093H289.01V66.4528H279.993V71.9092H289.762V76.3527H274.765Z" fill="#010A4F"/>
<defs>
<clipPath id="clip0_2330_27219">
<rect width="93" height="93" fill="white"/>
</clipPath>
</defs>
</svg>
