<svg width="94" height="94" viewBox="0 0 94 94" fill="none" xmlns="http://www.w3.org/2000/svg">
<g clip-path="url(#clip0_3314_25394)">
<path d="M47.0001 92.6094C72.1895 92.6094 92.6096 72.1893 92.6096 46.9999C92.6096 21.8104 72.1895 1.39038 47.0001 1.39038C21.8107 1.39038 1.39062 21.8104 1.39062 46.9999C1.39062 72.1893 21.8107 92.6094 47.0001 92.6094Z" fill="#010A4F"/>
<path d="M47 94C21.0839 94 0 72.9161 0 47C0 21.0839 21.0839 0 47 0C72.9161 0 94 21.0839 94 47C94 72.9161 72.9161 94 47 94ZM47 2.77802C22.6162 2.77802 2.77804 22.6162 2.77804 47C2.77804 71.3838 22.6313 91.222 47 91.222C71.3687 91.222 91.219 71.3838 91.219 47C91.219 22.6162 71.3838 2.77802 47 2.77802Z" fill="#674FFF"/>
<path d="M36.8498 38.3614C36.8429 38.4576 36.8661 38.5535 36.9162 38.6359L41.5402 46.4783C41.5825 46.5492 41.6426 46.6079 41.7145 46.6487C41.7865 46.6894 41.8677 46.7107 41.9504 46.7105H52.049C52.1313 46.7111 52.2123 46.6899 52.2838 46.6491C52.3553 46.6083 52.4147 46.5494 52.4562 46.4783L57.0832 38.6359C57.1309 38.5527 57.153 38.4571 57.1465 38.3614C57.0922 37.5048 56.5432 33.1915 51.3793 29.406C51.3022 29.3512 51.2113 29.3189 51.1169 29.3125C48.1006 29.1466 47.244 29.1255 46.9997 29.1255C46.7553 29.1255 45.8897 29.1466 42.8824 29.3125C42.788 29.3189 42.6972 29.3512 42.62 29.406C37.4471 33.1915 36.9071 37.4987 36.8498 38.3614Z" fill="white"/>
<path d="M28.4951 40.7141C29.3125 39.9631 30.4949 39.4594 31.4661 39.0673C32.7423 38.5663 34.0678 38.2013 35.4205 37.9784C35.5134 37.9622 35.5994 37.9185 35.6671 37.8528C35.7349 37.7872 35.7814 37.7027 35.8005 37.6104C36.1989 35.5822 37.0212 33.6612 38.2136 31.9729C38.8004 31.1647 39.4763 30.4251 40.2285 29.768C40.325 29.6835 41.1334 29.1104 41.6431 28.8028C41.7449 28.74 41.8194 28.6413 41.8518 28.5262C41.8842 28.4111 41.8722 28.288 41.8181 28.1814C41.1396 26.9237 40.2522 25.7905 39.1939 24.8303C39.1263 24.7673 39.0417 24.7254 38.9506 24.7099C38.8595 24.6943 38.7658 24.7058 38.6811 24.7428C29.9338 28.5223 26.4711 34.5398 26.2359 36.4039C26.0609 37.8125 27.1981 39.7429 27.7862 40.6267C27.8238 40.6832 27.8731 40.7309 27.9308 40.7666C27.9885 40.8022 28.0532 40.825 28.1206 40.8333C28.1879 40.8416 28.2562 40.8353 28.3209 40.8147C28.3855 40.7941 28.4449 40.7598 28.4951 40.7141Z" fill="white"/>
<path d="M26.9809 51.621C27.0403 51.5704 27.0865 51.506 27.1154 51.4334C27.1444 51.3609 27.1551 51.2824 27.1468 51.2048C26.7848 48.11 26.4621 45.0666 27.3489 42.0352C27.3688 41.9673 27.3734 41.8959 27.3625 41.826C27.3515 41.7561 27.3252 41.6895 27.2855 41.631C26.6582 40.7468 26.1063 39.8115 25.6356 38.8349C25.5984 38.7511 25.5378 38.68 25.4609 38.63C25.3841 38.5801 25.2944 38.5535 25.2028 38.5535C25.1111 38.5535 25.0215 38.5801 24.9446 38.63C24.8678 38.68 24.8071 38.7511 24.7699 38.8349C22.6284 43.4408 23.1351 48.7706 23.1713 49.1145C23.1713 49.1145 23.1713 49.1356 23.1713 49.1476C23.2331 50.8226 23.5926 52.4731 24.233 54.022C24.2663 54.1001 24.3197 54.1679 24.3878 54.2186C24.4559 54.2693 24.5362 54.301 24.6205 54.3105C24.7049 54.3201 24.7902 54.307 24.8679 54.2727C24.9455 54.2385 25.0127 54.1842 25.0625 54.1155C25.8799 52.9542 26.5526 52.0011 26.9809 51.621Z" fill="white"/>
<path d="M40.041 64.9138C39.0246 64.1568 35.9902 61.5115 34.7776 56.2088C34.7595 56.1311 34.7224 56.0591 34.6698 55.9991C34.6172 55.9392 34.5506 55.8931 34.476 55.8649C30.4341 54.3296 28.7601 53.1774 28.1659 52.6858C28.0815 52.6145 27.9747 52.5754 27.8642 52.5754C27.7538 52.5754 27.647 52.6145 27.5626 52.6858C26.5512 53.5773 25.7752 54.7044 25.3034 55.9675C25.2778 56.0562 25.2778 56.1503 25.3034 56.239C26.8116 62.0785 33.0523 66.796 37.263 68.7687C37.3519 68.8095 37.4511 68.8219 37.5473 68.8041C37.6434 68.7863 37.7317 68.7391 37.7999 68.6691C38.7153 67.7139 39.516 66.655 40.1858 65.5141C40.2381 65.4134 40.2523 65.2972 40.2257 65.1869C40.1991 65.0766 40.1335 64.9796 40.041 64.9138Z" fill="white"/>
<path d="M52.3453 28.8026C52.84 29.1042 53.6634 29.6833 53.757 29.7678C54.5109 30.424 55.1878 31.1637 55.7749 31.9727C56.9661 33.6616 57.7883 35.5824 58.1879 37.6102C58.2076 37.7028 58.2547 37.7873 58.323 37.8529C58.3913 37.9185 58.4776 37.9622 58.571 37.9782C59.9236 38.2015 61.249 38.5665 62.5253 39.0671C63.4936 39.4592 64.679 39.9719 65.4934 40.7139C65.5442 40.7594 65.6042 40.7933 65.6693 40.8134C65.7345 40.8336 65.8032 40.8394 65.8707 40.8305C65.9383 40.8216 66.0032 40.7983 66.0609 40.762C66.1186 40.7258 66.1679 40.6775 66.2052 40.6204C66.8085 39.7155 67.9275 37.8002 67.7526 36.3976C67.5203 34.5335 64.0576 28.516 55.3073 24.7336C55.2229 24.6979 55.13 24.6872 55.0397 24.7027C54.9493 24.7182 54.8653 24.7593 54.7976 24.821C53.7345 25.7856 52.843 26.9239 52.1613 28.1873C52.1084 28.294 52.0979 28.417 52.132 28.5312C52.1662 28.6454 52.2424 28.7424 52.3453 28.8026Z" fill="white"/>
<path d="M58.0759 56.085C58.0906 56.0009 58.0823 55.9144 58.0518 55.8346C56.7578 52.5167 53.3856 48.7644 52.6436 47.9681C52.5985 47.9189 52.5435 47.88 52.482 47.8539C52.4206 47.8279 52.3543 47.8154 52.2876 47.8173L47.0001 47.9138L41.7095 47.8173C41.6429 47.8158 41.5767 47.8285 41.5153 47.8545C41.4539 47.8805 41.3988 47.9192 41.3536 47.9681C40.6146 48.7644 37.2423 52.5107 35.9483 55.8346C35.9184 55.9145 35.909 56.0006 35.9212 56.085C36.4521 59.1465 39.2391 63.5172 41.5587 64.6784C43.6701 65.7372 46.4511 65.6557 46.988 65.6256C47.537 65.6557 50.3059 65.7372 52.4173 64.6784C54.764 63.5172 57.5481 59.1465 58.0759 56.085Z" fill="white"/>
<path d="M69.2303 38.8259C69.1925 38.7423 69.1315 38.6714 69.0544 38.6216C68.9774 38.5719 68.8876 38.5454 68.7959 38.5454C68.7042 38.5454 68.6144 38.5719 68.5374 38.6216C68.4604 38.6714 68.3993 38.7423 68.3616 38.8259C67.8928 39.8029 67.3419 40.7383 66.7147 41.622C66.6735 41.6798 66.6464 41.7465 66.6354 41.8166C66.6244 41.8868 66.6299 41.9585 66.6513 42.0262C67.5381 45.0575 67.2154 48.101 66.8504 51.1957C66.8428 51.2733 66.854 51.3515 66.8828 51.424C66.9117 51.4964 66.9574 51.5608 67.0163 51.6119C67.4476 51.992 68.1203 52.9452 68.9347 54.0974C68.9835 54.1671 69.0503 54.2223 69.1279 54.2573C69.2055 54.2923 69.2911 54.3057 69.3757 54.2961C69.4602 54.2865 69.5407 54.2543 69.6085 54.2029C69.6764 54.1515 69.7291 54.0827 69.7611 54.0039C70.3996 52.4553 70.7601 50.8063 70.8259 49.1326C70.8244 49.1195 70.8244 49.1064 70.8259 49.0933C70.8651 48.7435 71.3658 43.4227 69.2303 38.8259Z" fill="white"/>
<path d="M66.4429 52.7038C66.3609 52.6295 66.2551 52.5868 66.1446 52.5835C66.034 52.5801 65.9258 52.6164 65.8396 52.6857C65.2363 53.1804 63.5653 54.3326 59.5265 55.8679C59.4517 55.8941 59.3848 55.9388 59.332 55.9979C59.2793 56.057 59.2424 56.1285 59.2248 56.2058C58.0183 61.5084 54.9779 64.1567 53.9584 64.9138C53.8682 64.9823 53.8058 65.081 53.7825 65.1918C53.7592 65.3026 53.7767 65.4181 53.8317 65.5171C54.5002 66.658 55.301 67.716 56.2176 68.6691C56.2848 68.7397 56.3724 68.7876 56.4681 68.806C56.5638 68.8243 56.6629 68.8124 56.7515 68.7717C60.9743 66.808 67.1909 62.0815 68.7111 56.242C68.7383 56.1535 68.7383 56.0589 68.7111 55.9705C68.2366 54.7109 67.4573 53.5885 66.4429 52.7038Z" fill="white"/>
<path d="M47.0002 72.1047C40.4069 72.0967 34.0859 69.474 29.4237 64.8118C24.7615 60.1496 22.1388 53.8286 22.1309 47.2353C22.1388 40.6422 24.7616 34.3216 29.4239 29.6599C34.0862 24.9981 40.4072 22.3761 47.0002 22.3689C53.593 22.3761 59.9137 24.9982 64.5755 29.66C69.2373 34.3218 71.8594 40.6425 71.8666 47.2353C71.8594 53.8283 69.2374 60.1493 64.5757 64.8116C59.914 69.4739 53.5933 72.0967 47.0002 72.1047ZM47.0002 24.2541C40.9075 24.2613 35.0663 26.6848 30.758 30.993C26.4498 35.3013 24.0262 41.1425 24.019 47.2353C24.0262 53.3281 26.4498 59.1693 30.758 63.4775C35.0663 67.7858 40.9075 70.2093 47.0002 70.2165C53.0941 70.2109 58.9368 67.788 63.2464 63.4796C67.5559 59.1712 69.9803 53.3291 69.9875 47.2353C69.9803 41.1415 67.5559 35.2994 63.2464 30.9909C58.9368 26.6825 53.0941 24.2597 47.0002 24.2541Z" fill="white"/>
<path d="M48.2032 86.5286C48.1663 86.5063 48.1327 86.4789 48.1036 86.4471C47.983 86.3084 47.983 86.0912 47.9106 85.9313C47.8215 85.7423 47.6922 85.575 47.5317 85.4411C47.3713 85.3072 47.1835 85.2099 46.9816 85.1561C46.646 85.0072 46.2839 84.9272 45.9168 84.9209C45.4523 84.942 45.03 85.1954 44.5776 85.313C44.2591 85.3533 43.9516 85.4557 43.6727 85.6146C43.4284 85.7956 43.2956 86.1063 43.0302 86.2511C42.626 86.4712 42.0952 86.2179 41.6699 86.3989C41.4732 86.5149 41.2901 86.6525 41.1239 86.8091C40.9174 86.9539 40.6747 87.0388 40.4229 87.0542C40.1711 87.0697 39.9199 87.0151 39.6972 86.8965C39.659 86.8804 39.6245 86.8565 39.596 86.8264C39.5675 86.7963 39.5454 86.7606 39.5313 86.7216C39.4921 86.5708 39.6459 86.4682 39.6912 86.3415C39.7396 86.1805 39.73 86.0076 39.664 85.8529C39.5373 85.4698 39.3262 85.126 39.1754 84.755C39.0537 84.3691 38.8962 83.9954 38.7048 83.6389C38.5012 83.3388 38.2645 83.0626 37.999 82.8155C38.0473 82.725 38.174 82.7341 38.2735 82.7522C38.373 82.7703 38.5058 82.7521 38.5299 82.6616C38.554 82.5712 38.4334 82.4897 38.3489 82.4294C38.0955 82.2454 38.0744 81.8865 38.0775 81.5758V80.7795C38.0745 80.7561 38.0767 80.7323 38.084 80.7099C38.0913 80.6875 38.1035 80.6669 38.1197 80.6498C38.1329 80.6423 38.1476 80.6377 38.1628 80.6364C38.178 80.6351 38.1932 80.6371 38.2076 80.6423C38.2219 80.6474 38.2349 80.6556 38.2458 80.6663C38.2567 80.6769 38.2651 80.6898 38.2705 80.7041C38.2916 80.7646 38.2916 80.8305 38.2705 80.8911C38.3821 80.4085 39.1995 80.0465 39.5916 79.8867C40.2401 79.6242 41.519 79.3799 41.7453 78.5896C41.7724 78.4238 41.7724 78.2547 41.7453 78.0889C41.7338 78.0061 41.7396 77.9217 41.7625 77.8412C41.7853 77.7607 41.8246 77.6859 41.878 77.6214C41.9127 77.5829 41.9598 77.5579 42.0111 77.5507C42.0624 77.5436 42.1146 77.5547 42.1585 77.5822C42.2074 77.6383 42.2416 77.7057 42.258 77.7783C42.2852 77.8476 42.3455 77.923 42.4179 77.908C42.4518 77.8968 42.4801 77.8731 42.497 77.8416C42.5138 77.8102 42.5179 77.7734 42.5084 77.739C42.4864 77.671 42.4504 77.6084 42.4028 77.5551C42.3574 77.4992 42.3357 77.4277 42.3425 77.356C42.3847 77.1509 42.6109 77.3258 42.6954 77.3741C42.7062 77.3818 42.7185 77.3871 42.7315 77.3897C42.7445 77.3923 42.7579 77.3921 42.7708 77.3892C42.804 77.3892 42.8191 77.3349 42.813 77.2987C42.7738 77.1298 42.6924 77.0332 42.813 76.8583C43.0543 76.5295 43.7692 75.9534 44.1975 76.1887C44.3363 76.2611 44.4479 76.3727 44.5776 76.4541C44.7771 76.5757 45.0133 76.6227 45.2442 76.5868C45.2076 76.4379 45.1984 76.2836 45.217 76.1314C45.2774 75.9987 45.4312 75.9353 45.4855 75.7845C45.5398 75.6337 45.5156 75.5552 45.5549 75.4467C45.6034 75.3492 45.6783 75.2672 45.7711 75.2102C45.8639 75.1531 45.9708 75.1232 46.0797 75.1239C46.1885 75.1249 46.2972 75.1199 46.4055 75.1088C46.6588 75.0696 46.6045 74.9037 46.7644 74.7771C46.8458 74.7137 46.9635 74.7559 47.066 74.7982C47.4129 75.001 47.8156 75.0876 48.2152 75.0455C48.3062 75.0183 48.3989 74.9972 48.4927 74.9822C48.6888 74.9641 48.909 75.133 48.7944 75.3411C48.7393 75.4148 48.6766 75.4826 48.6073 75.5432C48.449 75.7493 48.3453 75.9921 48.3057 76.249C48.2825 76.321 48.2753 76.3972 48.2846 76.4722C48.3177 76.5871 48.3917 76.6858 48.4927 76.7497C48.9422 77.0875 49.5394 77.2082 49.9496 77.5973C50.031 77.6991 50.134 77.7815 50.2512 77.8386C50.3237 77.8553 50.3994 77.853 50.4707 77.8318C50.5421 77.8107 50.6067 77.7715 50.6584 77.7179C50.7611 77.609 50.8375 77.4779 50.8816 77.3349C51.1833 76.4692 51.0053 75.4678 51.4125 74.6443C51.4608 74.5448 51.5573 74.4332 51.6598 74.4724C51.7624 74.5116 51.7594 74.581 51.7805 74.6534C51.88 75.0033 51.9645 75.3592 52.0308 75.7181C52.0821 75.9866 52.1123 76.2973 52.4169 76.1826C52.5255 76.1404 52.6341 76.24 52.6974 76.3365C52.9045 76.7299 53.0258 77.1626 53.0534 77.6063C53.0837 78.0503 53.2549 78.4729 53.542 78.8128C53.8436 79.1145 54.3232 79.2593 54.4469 79.6634C54.5163 79.9017 54.4469 80.2003 54.6188 80.3783C54.7154 80.4748 54.8662 80.505 54.9627 80.6015C55.1135 80.7554 55.0803 80.9846 55.1708 81.1656C55.2613 81.3466 55.5026 81.5125 55.6504 81.6934C55.8445 82.0085 55.943 82.3731 55.9339 82.7431C55.9959 83.208 55.9898 83.6795 55.9158 84.1427C55.6383 85.4517 54.3112 86.3476 54.0518 87.6597C54.0065 87.901 53.9613 88.1966 53.732 88.2871C53.5782 88.3474 53.4033 88.2871 53.2374 88.2871C52.8995 88.3142 52.5285 88.9175 52.1787 88.6249C52.055 88.5193 52.0037 88.3233 51.8438 88.3021C51.684 88.281 51.5965 88.5796 51.4185 88.6369C51.2406 88.6943 51.0898 88.5072 50.9269 88.4107C50.7683 88.3407 50.599 88.2979 50.4262 88.284C50.0009 88.1996 49.9587 87.8587 49.8561 87.4998C49.8224 87.3472 49.7448 87.2078 49.6329 87.0986C49.5763 87.0528 49.5094 87.0212 49.4381 87.0065C49.3667 86.9918 49.2928 86.9944 49.2227 87.0142C49.2227 86.9056 49.2951 86.797 49.3071 86.6794C49.317 86.6184 49.3147 86.556 49.3002 86.4959C49.2857 86.4358 49.2593 86.3793 49.2227 86.3295C49.1697 86.4138 49.1243 86.5026 49.0869 86.5949C49.0677 86.6413 49.0372 86.6821 48.9983 86.7137C48.9593 86.7453 48.913 86.7667 48.8637 86.7759C48.8018 86.7773 48.7405 86.7627 48.6858 86.7337C48.5193 86.6794 48.3578 86.6108 48.2032 86.5286Z" fill="white"/>
<path d="M24.6978 78.3846C25.6933 79.2797 26.8859 79.9276 28.1786 80.2758C28.9558 80.4871 29.7752 80.4871 30.5524 80.2758C31.4023 80.0017 32.1299 79.4395 32.6095 78.6862C32.6432 78.6391 32.6613 78.5827 32.6613 78.5249C32.6613 78.467 32.6432 78.4105 32.6095 78.3635C32.3577 78.0346 32.0517 77.7511 31.7046 77.5249C31.3986 77.3171 31.0587 77.164 30.7002 77.0725C29.9765 76.8916 29.2245 76.8537 28.4862 76.9609C27.2122 77.142 25.962 77.4627 24.7581 77.9171C24.7131 77.9345 24.6737 77.9638 24.644 78.0018C24.6143 78.0398 24.5953 78.0851 24.5891 78.1329C24.5829 78.1808 24.5898 78.2294 24.6089 78.2737C24.628 78.318 24.6587 78.3563 24.6978 78.3846Z" fill="white"/>
<path d="M29.6718 70.8591C30.6082 71.2463 31.4667 71.8002 32.2054 72.4939C32.6823 72.9649 33.0454 73.5385 33.2672 74.171C33.5386 74.9828 33.5876 75.8524 33.4089 76.6896C33.3996 76.7454 33.3731 76.7969 33.3331 76.837C33.2931 76.877 33.2416 76.9035 33.1857 76.9128C32.7838 76.9718 32.3742 76.9534 31.9792 76.8585C31.6298 76.7613 31.3008 76.6019 31.008 76.3879C30.4432 75.9377 30.0115 75.3424 29.7592 74.6656C29.3413 73.5339 29.1825 72.3227 29.2947 71.1215C29.299 71.078 29.3126 71.036 29.3347 70.9983C29.3567 70.9606 29.3868 70.9281 29.4226 70.9032C29.4585 70.8782 29.4993 70.8614 29.5423 70.8537C29.5853 70.8461 29.6295 70.8479 29.6718 70.8591Z" fill="white"/>
<path d="M19.0326 73.7909C19.8406 74.8565 20.8817 75.7232 22.0761 76.3246C22.4423 76.4894 22.8244 76.6167 23.2163 76.7046C23.613 76.7856 24.0197 76.807 24.4228 76.768C25.3111 76.6709 26.1357 76.2602 26.7483 75.6097C26.7894 75.5692 26.8166 75.5167 26.8258 75.4598C26.835 75.4028 26.8258 75.3444 26.7996 75.293C26.6117 74.9254 26.3686 74.5887 26.0787 74.2946C25.8113 74.0359 25.5062 73.8193 25.1738 73.6521C24.8434 73.4903 24.4952 73.3679 24.1362 73.2872C23.7699 73.1982 23.3964 73.1417 23.0202 73.1183C22.2856 73.0695 21.5484 73.0785 20.8153 73.1454C20.1396 73.1967 19.5545 73.2841 19.1835 73.3475C19.136 73.3553 19.0915 73.3758 19.0548 73.4069C19.0181 73.438 18.9906 73.4784 18.9751 73.524C18.9596 73.5695 18.9568 73.6184 18.9669 73.6654C18.977 73.7124 18.9998 73.7558 19.0326 73.7909Z" fill="white"/>
<path d="M25.3728 67.3601C26.2208 67.9227 26.9563 68.6388 27.5415 69.4715C28.2232 70.5151 28.6605 71.8845 27.9095 73.8149C27.8889 73.868 27.8522 73.9134 27.8047 73.9448C27.7571 73.9761 27.701 73.9919 27.644 73.9899C27.241 73.9724 26.8462 73.8696 26.4858 73.6882C26.1581 73.5315 25.8656 73.3099 25.6261 73.0367C25.387 72.7678 25.1925 72.4623 25.05 72.1318C24.9064 71.8006 24.7992 71.4547 24.7303 71.1003C24.6089 70.4172 24.5886 69.72 24.67 69.0311C24.7318 68.5214 24.8326 68.0172 24.9716 67.5229C24.9868 67.4855 25.0093 67.4515 25.0378 67.4229C25.0663 67.3944 25.1003 67.3718 25.1377 67.3566C25.1752 67.3414 25.2152 67.3339 25.2556 67.3345C25.296 67.3351 25.3358 67.3438 25.3728 67.3601Z" fill="white"/>
<path d="M14.1162 67.8065C14.6826 69.0185 15.5244 70.0814 16.5745 70.9103C17.2099 71.4039 17.9642 71.7212 18.7613 71.8303C19.6506 71.9127 20.5406 71.6811 21.2769 71.1757C21.3253 71.1438 21.3626 71.0976 21.3836 71.0436C21.4047 70.9896 21.4085 70.9304 21.3946 70.8741C21.2903 70.4742 21.1212 70.0941 20.8938 69.749C20.6932 69.4374 20.4401 69.1629 20.1458 68.9376C19.5517 68.4875 18.8755 68.1576 18.155 67.9664C17.4471 67.7694 16.7251 67.6272 15.9954 67.5411C15.3197 67.4566 14.7376 67.4144 14.3636 67.4023C14.315 67.3994 14.2665 67.4098 14.2234 67.4323C14.1802 67.4548 14.144 67.4887 14.1186 67.5302C14.0932 67.5717 14.0795 67.6194 14.0791 67.668C14.0787 67.7167 14.0915 67.7646 14.1162 67.8065Z" fill="white"/>
<path d="M21.6417 62.8357C22.3506 63.5608 22.9228 64.4079 23.3308 65.3362C23.5868 65.9554 23.6973 66.6252 23.6536 67.2938C23.5838 68.1475 23.2869 68.9671 22.7939 69.6676C22.7626 69.7167 22.7165 69.7545 22.6623 69.7756C22.6081 69.7968 22.5486 69.8001 22.4923 69.7852C22.106 69.6804 21.7435 69.5022 21.4245 69.2604C21.1404 69.0337 20.8993 68.7579 20.7127 68.446C20.3714 67.8093 20.2078 67.0925 20.2391 66.3708C20.2607 65.6779 20.3837 64.992 20.6041 64.3348C20.7656 63.8502 20.9674 63.38 21.2074 62.9292C21.2285 62.8932 21.2569 62.8619 21.2907 62.8375C21.3246 62.813 21.3632 62.7958 21.404 62.787C21.4448 62.7782 21.487 62.778 21.528 62.7864C21.5689 62.7948 21.6076 62.8116 21.6417 62.8357Z" fill="white"/>
<path d="M10.7045 61.3516C11.0296 62.651 11.6488 63.8584 12.5143 64.8806C12.7873 65.177 13.0905 65.4439 13.4192 65.6769C13.7493 65.9064 14.1124 66.0843 14.496 66.2048C15.3513 66.4629 16.2704 66.4095 17.09 66.054C17.1432 66.0315 17.1881 65.993 17.2184 65.9438C17.2487 65.8946 17.2629 65.8371 17.2589 65.7795C17.2448 65.566 17.2125 65.3541 17.1624 65.1461C17.1196 64.9526 17.061 64.763 16.9875 64.579C16.8444 64.2385 16.6512 63.9213 16.4144 63.6379C15.9159 63.0811 15.3134 62.6272 14.6408 62.3017C13.9854 61.9669 13.3046 61.6845 12.6048 61.4571C11.9623 61.243 11.3983 61.0922 11.0242 61.0047C10.9771 60.9906 10.927 60.99 10.8796 61.003C10.8321 61.016 10.7893 61.0421 10.756 61.0782C10.7227 61.1144 10.7002 61.1592 10.6911 61.2075C10.682 61.2558 10.6866 61.3058 10.7045 61.3516Z" fill="white"/>
<path d="M19.057 57.943C19.6137 58.7897 20.0075 59.7329 20.2182 60.724C20.4414 61.9487 20.2936 63.3995 18.8549 64.8654C18.816 64.9039 18.7665 64.93 18.7128 64.9402C18.6591 64.9504 18.6035 64.9443 18.5532 64.9227C18.3651 64.8311 18.1855 64.7231 18.0163 64.6C17.8639 64.4824 17.7234 64.3501 17.5971 64.2049C17.3565 63.9317 17.1738 63.6126 17.0602 63.2668C16.8488 62.5818 16.8249 61.8527 16.9908 61.1554C17.1507 60.4799 17.4067 59.8308 17.7509 59.228C18.0028 58.7858 18.2892 58.3642 18.6075 57.9671C18.6341 57.934 18.6674 57.9068 18.7051 57.8874C18.7429 57.8679 18.7844 57.8567 18.8268 57.8544C18.8693 57.8522 18.9117 57.8589 18.9514 57.8741C18.991 57.8894 19.027 57.9129 19.057 57.943Z" fill="white"/>
<path d="M8.54225 53.9044C8.58413 55.2435 8.93842 56.5542 9.57684 57.7321C9.96601 58.4379 10.5353 59.028 11.2268 59.4423C12.012 59.8671 12.9208 60.0046 13.7967 59.8314C13.8536 59.8211 13.9058 59.7932 13.9459 59.7515C13.986 59.7098 14.0119 59.6565 14.0199 59.5992C14.0851 59.1911 14.08 58.7749 14.0048 58.3685C13.9435 58.0029 13.819 57.6507 13.6368 57.3279C13.2693 56.679 12.7773 56.1091 12.189 55.6508C11.1769 54.8595 10.0815 54.1808 8.9223 53.6269C8.87875 53.6065 8.83051 53.5982 8.78265 53.6028C8.73478 53.6074 8.68903 53.6248 8.65019 53.6532C8.61134 53.6816 8.58084 53.7198 8.56185 53.764C8.54287 53.8082 8.53609 53.8567 8.54225 53.9044Z" fill="white"/>
<path d="M17.4218 52.3087C17.7874 53.2528 17.9785 54.2554 17.9859 55.2677C17.976 55.9371 17.813 56.5954 17.5093 57.1921C17.1095 57.9497 16.5136 58.5862 15.784 59.0351C15.7393 59.0649 15.6869 59.0808 15.6332 59.0808C15.5795 59.0808 15.527 59.0649 15.4824 59.0351C15.1632 58.788 14.8957 58.4805 14.6951 58.1302C14.5259 57.8093 14.4145 57.4611 14.3663 57.1016C14.3025 56.3824 14.4338 55.6592 14.7464 55.0083C15.2777 53.9255 16.0444 52.9753 16.9905 52.2273C17.0238 52.2031 17.0616 52.186 17.1017 52.177C17.1418 52.168 17.1834 52.1673 17.2237 52.1749C17.2641 52.1825 17.3026 52.1983 17.3366 52.2213C17.3707 52.2444 17.3997 52.2741 17.4218 52.3087Z" fill="white"/>
<path d="M7.96299 46.635C7.73984 47.9537 7.83078 49.3064 8.22843 50.5834C8.35817 50.9629 8.52911 51.327 8.73819 51.6692C8.95251 52.006 9.21351 52.3106 9.51338 52.5741C10.1983 53.1473 11.0635 53.4602 11.9566 53.4579C12.0144 53.4604 12.0715 53.4441 12.1194 53.4115C12.1672 53.3789 12.2032 53.3317 12.222 53.2769C12.4975 52.5372 12.5218 51.7274 12.2914 50.9725C12.1862 50.6204 12.0351 50.2837 11.842 49.971C11.6528 49.646 11.4369 49.3373 11.1965 49.0481C11.0758 48.9003 10.9491 48.7464 10.8194 48.6167C10.6897 48.487 10.5661 48.3392 10.4364 48.2065C10.177 47.9441 9.9085 47.6968 9.65212 47.4705C9.13934 47.0181 8.69293 46.6561 8.3913 46.4329C8.35202 46.4049 8.30599 46.3879 8.25794 46.3836C8.2099 46.3794 8.16158 46.3879 8.11795 46.4085C8.07433 46.4291 8.03697 46.4609 8.00974 46.5008C7.9825 46.5406 7.96637 46.5869 7.96299 46.635Z" fill="white"/>
<path d="M16.9849 46.7889C17.1532 47.7881 17.144 48.8092 16.9578 49.8052C16.6562 51.0117 15.9714 52.2906 14.0651 53.0688C14.0137 53.0885 13.9575 53.0924 13.9038 53.0801C13.85 53.0677 13.8012 53.0397 13.7635 52.9995C13.5077 52.7142 13.3125 52.3799 13.1896 52.017C13.0668 51.6541 13.0188 51.27 13.0487 50.888C13.0772 50.5379 13.1554 50.1936 13.2809 49.8655C13.4207 49.5313 13.5989 49.2145 13.8118 48.9214C13.9143 48.7736 14.0259 48.6198 14.1406 48.4961C14.2552 48.3724 14.3819 48.2307 14.5085 48.107C14.7472 47.8716 15.0001 47.651 15.2656 47.4464C15.673 47.136 16.1059 46.8606 16.5596 46.623C16.5972 46.5992 16.6398 46.5847 16.684 46.5804C16.7282 46.5762 16.7728 46.5823 16.8142 46.5985C16.8556 46.6146 16.8926 46.6403 16.9223 46.6733C16.9519 46.7064 16.9734 46.746 16.9849 46.7889Z" fill="white"/>
<path d="M8.88892 38.9434C8.40965 40.1916 8.22289 41.533 8.34297 42.8646C8.38588 43.2645 8.48121 43.6569 8.6265 44.0319C8.76297 44.4072 8.95295 44.7607 9.19055 45.0816C9.74678 45.7826 10.5314 46.2661 11.4075 46.448C11.4644 46.4618 11.5242 46.4573 11.5784 46.4351C11.6326 46.4129 11.6784 46.3741 11.7092 46.3243C12.614 44.783 12.2762 43.3382 11.5644 41.9718C10.945 40.8471 10.2036 39.7941 9.35342 38.8318C9.32028 38.7963 9.27831 38.7702 9.23179 38.7563C9.18527 38.7423 9.13587 38.7409 9.08863 38.7522C9.0414 38.7636 8.99804 38.7873 8.96295 38.8209C8.92786 38.8544 8.90231 38.8967 8.88892 38.9434Z" fill="white"/>
<path d="M17.685 40.9524C17.6658 41.3791 17.6205 41.8042 17.5493 42.2253C17.4519 42.8022 17.2827 43.3646 17.0455 43.8993C16.9091 44.1897 16.7487 44.4682 16.566 44.7318C16.3627 45.0132 16.1234 45.2668 15.8541 45.4859C15.1907 46.0234 14.3965 46.3752 13.5527 46.5054C13.4948 46.5184 13.4343 46.5126 13.38 46.4887C13.3257 46.4648 13.2805 46.4242 13.251 46.3727C13.1491 46.1899 13.0643 45.9981 12.9977 45.7996C12.9318 45.618 12.8912 45.4282 12.877 45.2356C12.8482 44.8744 12.8829 44.511 12.9796 44.1618C13.0755 43.8164 13.2318 43.4906 13.4411 43.1996C13.6456 42.9038 13.8812 42.6307 14.1439 42.3852C15.058 41.5966 16.1371 41.0225 17.3019 40.7051C17.3434 40.6887 17.3882 40.6825 17.4325 40.6869C17.4769 40.6913 17.5195 40.7062 17.557 40.7304C17.5944 40.7546 17.6256 40.7873 17.6478 40.8259C17.6701 40.8645 17.6828 40.9079 17.685 40.9524Z" fill="white"/>
<path d="M11.206 32.0181C10.9165 32.5027 10.6605 33.0066 10.4398 33.5262C10.3049 33.8737 10.192 34.2293 10.102 34.591C9.99984 34.9741 9.93319 35.3659 9.90294 35.7613C9.87649 36.1641 9.89268 36.5685 9.95121 36.9678C10.0049 37.3648 10.1242 37.7501 10.3041 38.108C10.7115 38.9008 11.3823 39.5269 12.2014 39.8786C12.2546 39.9026 12.3141 39.9095 12.3714 39.8981C12.4287 39.8867 12.481 39.8578 12.5211 39.8152C13.0627 39.242 13.4035 38.5085 13.4923 37.7249C13.527 37.3582 13.5178 36.9886 13.4652 36.624C13.4221 36.2511 13.3464 35.8827 13.239 35.523C13.0217 34.8186 12.7557 34.1303 12.4427 33.4629C12.141 32.8596 11.8575 32.3258 11.6765 32.003C11.652 31.9616 11.6169 31.9275 11.5747 31.9043C11.5325 31.8811 11.4849 31.8697 11.4368 31.8712C11.3887 31.8728 11.3419 31.8872 11.3013 31.913C11.2607 31.9389 11.2278 31.9752 11.206 32.0181Z" fill="white"/>
<path d="M19.4375 35.7131C19.3455 36.1261 19.2163 36.5299 19.0514 36.9196C18.9525 37.1818 18.8398 37.4385 18.7136 37.6887C18.5723 37.9572 18.412 38.2152 18.234 38.4609C18.0514 38.7258 17.8389 38.9687 17.6006 39.1848C17.343 39.4147 17.0619 39.6169 16.762 39.7881C16.0033 40.1879 15.1514 40.3774 14.2947 40.337C14.2379 40.3362 14.1827 40.3178 14.1367 40.2843C14.0908 40.2508 14.0564 40.2039 14.0383 40.15C13.9139 39.7882 13.8653 39.4047 13.8954 39.0233C13.9255 38.642 14.0337 38.2708 14.2133 37.933C14.3758 37.6161 14.5876 37.327 14.8406 37.0764C15.1038 36.8269 15.393 36.6065 15.7033 36.4189C16.2985 36.0608 16.9457 35.7973 17.6217 35.6376C18.1163 35.5114 18.6209 35.4276 19.1298 35.3873C19.1721 35.3863 19.214 35.3942 19.253 35.4105C19.292 35.4268 19.3271 35.451 19.3561 35.4817C19.3851 35.5124 19.4074 35.5489 19.4214 35.5887C19.4354 35.6286 19.4409 35.6709 19.4375 35.7131Z" fill="white"/>
<path d="M15.0906 25.316C14.706 25.73 14.3522 26.1715 14.0319 26.6371C13.8238 26.9444 13.6393 27.2671 13.4799 27.6023C13.3025 27.9573 13.1552 28.3266 13.0396 28.7063C12.9321 29.0935 12.8644 29.4907 12.8375 29.8917C12.809 30.2911 12.8457 30.6925 12.9461 31.0801C13.1789 31.9421 13.7061 32.6955 14.4361 33.2096C14.4834 33.2429 14.5397 33.2607 14.5975 33.2607C14.6552 33.2607 14.7116 33.2429 14.7589 33.2096C15.1008 32.9759 15.3989 32.6839 15.6396 32.347C15.8546 32.0466 16.0243 31.7163 16.1433 31.3667C16.2526 31.0157 16.3214 30.6534 16.3484 30.2868C16.3801 29.9115 16.3801 29.5341 16.3484 29.1587C16.2829 28.4253 16.165 27.6975 15.9955 26.981C15.8387 26.3204 15.6577 25.7473 15.5491 25.3974C15.5324 25.3536 15.5046 25.3149 15.4685 25.285C15.4324 25.2551 15.3891 25.235 15.343 25.2268C15.2968 25.2186 15.2493 25.2225 15.205 25.2382C15.1608 25.2538 15.1214 25.2806 15.0906 25.316Z" fill="white"/>
<path d="M22.387 30.6334C22.2107 31.0239 22.0007 31.3983 21.7596 31.7525C21.6028 31.9666 21.458 32.2079 21.2679 32.4342C21.0734 32.6687 20.8616 32.8885 20.6345 33.0917C20.401 33.3112 20.1441 33.5043 19.8684 33.6678C19.5682 33.8378 19.2507 33.9753 18.9213 34.078C18.0956 34.3095 17.2231 34.3168 16.3936 34.0991C16.3385 34.0875 16.2885 34.0588 16.2506 34.0171C16.2127 33.9754 16.1888 33.9229 16.1825 33.8669C16.1428 33.4615 16.1796 33.0522 16.2911 32.6604C16.3991 32.3135 16.5767 31.9923 16.8129 31.7163C17.0384 31.4394 17.3073 31.2011 17.6092 31.0105C17.9178 30.8219 18.2454 30.6662 18.5865 30.546C19.2433 30.3199 19.9311 30.1968 20.6255 30.181C21.1291 30.1569 21.6338 30.1781 22.1336 30.2443C22.1794 30.2452 22.2243 30.2572 22.2644 30.2794C22.3044 30.3017 22.3385 30.3333 22.3635 30.3717C22.3885 30.4101 22.4037 30.454 22.4078 30.4996C22.4119 30.5453 22.4047 30.5912 22.387 30.6334Z" fill="white"/>
<path d="M19.9562 19.8744C19.4979 20.2043 19.0635 20.5662 18.6561 20.9573C18.3997 21.2263 18.1571 21.5082 17.9292 21.8019C17.6822 22.1117 17.4679 22.4463 17.2898 22.8002C16.9004 23.5065 16.7087 24.3047 16.7348 25.1107C16.7916 26.0004 17.1612 26.8413 17.7784 27.4846C17.8161 27.5248 17.8652 27.5525 17.9192 27.5638C17.9732 27.5752 18.0293 27.5696 18.08 27.5479C18.4609 27.3857 18.8117 27.1603 19.1176 26.8813C19.2533 26.7526 19.3774 26.6123 19.4887 26.462C19.6016 26.3209 19.7025 26.1706 19.7903 26.0126C19.9711 25.6922 20.109 25.3494 20.2005 24.9931C20.3051 24.6327 20.3807 24.2646 20.4267 23.8922C20.4729 23.5138 20.498 23.1331 20.5021 22.752C20.5021 22.384 20.5021 22.0251 20.5021 21.6842C20.478 21.0086 20.4177 20.4174 20.3694 20.0434C20.3613 19.9997 20.3423 19.9587 20.3143 19.9243C20.2862 19.8898 20.25 19.863 20.2089 19.8462C20.1677 19.8293 20.1231 19.8231 20.0789 19.8281C20.0348 19.833 19.9926 19.849 19.9562 19.8744Z" fill="white"/>
<path d="M26.0762 26.5042C25.8239 26.8514 25.5423 27.1763 25.2346 27.4755C25.0472 27.6813 24.8456 27.8738 24.6314 28.0516C24.4021 28.2356 24.1457 28.4075 23.8863 28.5764C23.3162 28.9258 22.6752 29.1433 22.0102 29.2128C21.1545 29.2755 20.2974 29.1122 19.5248 28.7393C19.4726 28.7156 19.4289 28.6767 19.3993 28.6277C19.3697 28.5788 19.3556 28.5219 19.3589 28.4648C19.4019 28.0663 19.5196 27.6796 19.7057 27.3246C19.7921 27.163 19.8931 27.0095 20.0074 26.8662C20.1247 26.7312 20.2539 26.607 20.3935 26.4952C20.673 26.2733 20.9828 26.0925 21.3134 25.9583C21.6521 25.8303 22.0043 25.7413 22.3631 25.6928C22.7148 25.6436 23.0698 25.6225 23.4248 25.6295C23.7655 25.6444 24.1049 25.6797 24.4413 25.7351C24.9428 25.8137 25.437 25.9327 25.9193 26.091C25.9578 26.1066 25.9925 26.13 26.0215 26.1596C26.0505 26.1893 26.0731 26.2246 26.0878 26.2634C26.1025 26.3022 26.1091 26.3436 26.1071 26.385C26.1051 26.4265 26.0946 26.467 26.0762 26.5042Z" fill="white"/>
<path d="M64.829 70.859C63.8925 71.2462 63.0341 71.8001 62.2953 72.4938C61.8185 72.9648 61.4553 73.5384 61.2336 74.1709C60.9621 74.9827 60.9132 75.8524 61.0918 76.6895C61.1017 76.7455 61.1288 76.7971 61.1693 76.8371C61.2099 76.8771 61.2618 76.9035 61.318 76.9127C61.72 76.9721 62.1296 76.9536 62.5245 76.8584C62.8739 76.7612 63.203 76.6018 63.4958 76.3878C64.0605 75.937 64.493 75.3419 64.7476 74.6655C65.1629 73.5331 65.3216 72.3226 65.2121 71.1214C65.208 71.0772 65.1942 71.0345 65.1718 70.9963C65.1493 70.9581 65.1187 70.9253 65.0822 70.9002C65.0456 70.8752 65.0039 70.8585 64.9602 70.8513C64.9164 70.8442 64.8716 70.8468 64.829 70.859Z" fill="white"/>
<path d="M69.8036 78.3846C68.8081 79.2797 67.6156 79.9276 66.3228 80.2758C65.5456 80.4871 64.7262 80.4871 63.949 80.2758C63.0991 80.0017 62.3715 79.4395 61.8919 78.6862C61.8586 78.6389 61.8408 78.5826 61.8408 78.5248C61.8408 78.4671 61.8586 78.4107 61.8919 78.3634C62.1445 78.0353 62.4504 77.7519 62.7968 77.5249C63.1039 77.317 63.4448 77.1639 63.8042 77.0725C64.5268 76.8912 65.278 76.8533 66.0152 76.9609C67.2893 77.1415 68.5395 77.4622 69.7433 77.917C69.7883 77.9345 69.8277 77.9638 69.8574 78.0018C69.8872 78.0398 69.9061 78.085 69.9123 78.1329C69.9185 78.1807 69.9116 78.2293 69.8925 78.2736C69.8734 78.3179 69.8427 78.3562 69.8036 78.3846Z" fill="white"/>
<path d="M69.1273 67.3601C68.2798 67.9225 67.5453 68.6386 66.9615 69.4715C66.2768 70.5151 65.8395 71.8845 66.5905 73.8149C66.6115 73.8678 66.6482 73.9129 66.6957 73.9442C66.7432 73.9755 66.7991 73.9914 66.856 73.9899C67.259 73.9724 67.6538 73.8696 68.0142 73.6883C68.3426 73.5311 68.6359 73.3095 68.8769 73.0367C69.114 72.7663 69.3082 72.4611 69.453 72.1318C69.5939 71.7996 69.7011 71.454 69.7727 71.1003C69.8916 70.4169 69.911 69.72 69.83 69.0311C69.7698 68.5211 69.6689 68.0168 69.5284 67.5229C69.5133 67.4855 69.4908 67.4515 69.4622 67.4229C69.4337 67.3944 69.3997 67.3718 69.3623 67.3566C69.3249 67.3414 69.2848 67.3339 69.2444 67.3345C69.204 67.3351 69.1642 67.3438 69.1273 67.3601Z" fill="white"/>
<path d="M75.4674 73.7909C74.6594 74.8565 73.6184 75.7232 72.424 76.3246C72.0588 76.4894 71.6778 76.6167 71.2868 76.7046C70.89 76.7853 70.4834 76.8066 70.0803 76.768C69.1922 76.6701 68.3679 76.2596 67.7547 75.6097C67.7137 75.5692 67.6865 75.5167 67.6773 75.4598C67.6681 75.4028 67.6773 75.3444 67.7035 75.293C67.8924 74.926 68.1355 74.5895 68.4244 74.2946C68.6919 74.0361 68.997 73.8195 69.3293 73.6521C69.6584 73.4899 70.0057 73.3674 70.3639 73.2872C70.7302 73.1985 71.1037 73.1419 71.4799 73.1183C72.2144 73.0695 72.9517 73.0785 73.6848 73.1454C74.3605 73.1967 74.9456 73.2841 75.3166 73.3475C75.3641 73.3553 75.4085 73.3758 75.4452 73.4069C75.4819 73.438 75.5095 73.4784 75.525 73.524C75.5405 73.5695 75.5433 73.6184 75.5332 73.6654C75.523 73.7124 75.5003 73.7558 75.4674 73.7909Z" fill="white"/>
<path d="M72.8591 62.8357C72.1512 63.5615 71.5791 64.4084 71.17 65.3362C70.9139 65.9554 70.8035 66.6251 70.8472 67.2938C70.917 68.1475 71.2138 68.9671 71.7069 69.6676C71.7382 69.7166 71.7843 69.7545 71.8385 69.7756C71.8927 69.7967 71.9522 69.8001 72.0085 69.7852C72.3971 69.6822 72.7626 69.5061 73.0853 69.2664C73.3677 69.0388 73.6077 68.7631 73.7941 68.452C74.1354 67.8153 74.299 67.0985 74.2677 66.3768C74.2493 65.6851 74.1283 65 73.9088 64.3438C73.7473 63.8592 73.5455 63.3891 73.3055 62.9382C73.2853 62.8997 73.257 62.866 73.2225 62.8394C73.1881 62.8128 73.1483 62.794 73.1059 62.7843C73.0635 62.7745 73.0195 62.7741 72.9769 62.7829C72.9343 62.7918 72.8941 62.8098 72.8591 62.8357Z" fill="white"/>
<path d="M80.3846 67.8064C79.8182 69.0184 78.9764 70.0812 77.9263 70.9101C77.2915 71.4047 76.537 71.7222 75.7395 71.8301C74.8503 71.9126 73.9602 71.681 73.2239 71.1756C73.1761 71.1432 73.1394 71.0969 73.1189 71.0429C73.0984 70.9889 73.095 70.9299 73.1093 70.8739C73.2107 70.4731 73.3801 70.0925 73.61 69.7489C73.8096 69.4374 74.0616 69.1628 74.355 68.9375C74.9491 68.4873 75.6253 68.1574 76.3458 67.9662C77.0566 67.7688 77.7817 67.6266 78.5145 67.5409C79.1902 67.4565 79.7723 67.4142 80.1463 67.4022C80.1942 67.401 80.2414 67.4126 80.2833 67.4358C80.3251 67.459 80.36 67.493 80.3843 67.5342C80.4086 67.5754 80.4214 67.6224 80.4215 67.6703C80.4215 67.7181 80.4088 67.7651 80.3846 67.8064Z" fill="white"/>
<path d="M75.4433 57.9431C74.8848 58.7881 74.4899 59.7304 74.279 60.7211C74.0528 61.9457 74.2006 63.3966 75.6393 64.8625C75.6784 64.9007 75.7278 64.9265 75.7815 64.9367C75.8352 64.9469 75.8906 64.941 75.941 64.9198C76.1281 64.8282 76.3068 64.7202 76.4749 64.5971C76.6273 64.4795 76.7678 64.3472 76.8941 64.2019C77.1347 63.9288 77.3174 63.6096 77.431 63.2638C77.6424 62.5789 77.6663 61.8498 77.5004 61.1524C77.3431 60.4761 77.087 59.8267 76.7403 59.225C76.4884 58.7828 76.202 58.3612 75.8837 57.9642C75.8569 57.9327 75.824 57.907 75.7869 57.8887C75.7498 57.8704 75.7094 57.86 75.6681 57.858C75.6268 57.856 75.5855 57.8626 75.5468 57.8772C75.5082 57.8918 75.4729 57.9143 75.4433 57.9431Z" fill="white"/>
<path d="M83.799 61.3516C83.4726 62.6505 82.8535 63.8576 81.9892 64.8807C81.7163 65.177 81.413 65.4439 81.0843 65.6769C80.7552 65.9063 80.3932 66.0843 80.0105 66.2048C79.1552 66.463 78.2361 66.4095 77.4165 66.054C77.363 66.0316 77.3177 65.9932 77.2869 65.9441C77.2561 65.8949 77.2413 65.8374 77.2446 65.7795C77.2587 65.566 77.291 65.3541 77.3411 65.1461C77.384 64.9526 77.4425 64.763 77.5161 64.579C77.6602 64.2384 77.8544 63.9212 78.0922 63.6379C78.5897 63.0815 79.1911 62.6275 79.8627 62.3017C80.5191 61.9669 81.2009 61.6845 81.9017 61.4571C82.5412 61.243 83.1083 61.0922 83.4823 61.0047C83.5291 60.9925 83.5783 60.9933 83.6246 61.007C83.671 61.0207 83.7127 61.0468 83.7453 61.0825C83.7779 61.1182 83.8001 61.1622 83.8096 61.2096C83.8191 61.257 83.8154 61.3061 83.799 61.3516Z" fill="white"/>
<path d="M77.0787 52.3087C76.7132 53.2528 76.522 54.2553 76.5146 55.2677C76.5259 55.9369 76.6888 56.5949 76.9912 57.1921C77.3926 57.9486 77.9881 58.5847 78.7165 59.035C78.7615 59.0641 78.8138 59.0796 78.8674 59.0796C78.9209 59.0796 78.9732 59.0641 79.0182 59.035C79.3357 58.787 79.602 58.4797 79.8024 58.1301C79.9713 57.8089 80.0835 57.461 80.1342 57.1016C80.197 56.3821 80.0647 55.6589 79.7511 55.0083C79.2209 53.9248 78.4539 52.9744 77.507 52.2273C77.4738 52.2036 77.4362 52.1869 77.3964 52.1782C77.3566 52.1694 77.3155 52.1688 77.2754 52.1764C77.2354 52.1841 77.1973 52.1997 77.1635 52.2224C77.1297 52.2452 77.1009 52.2745 77.0787 52.3087Z" fill="white"/>
<path d="M85.9738 53.9044C85.9319 55.2435 85.5776 56.5542 84.9392 57.7321C84.5503 58.4371 83.9822 59.0271 83.2923 59.4423C82.507 59.8671 81.5982 60.0046 80.7224 59.8314C80.6649 59.8217 80.612 59.794 80.5713 59.7523C80.5307 59.7105 80.5044 59.6569 80.4962 59.5992C80.4306 59.191 80.4367 58.7745 80.5143 58.3685C80.5732 58.0027 80.6968 57.6503 80.8793 57.3279C81.2468 56.679 81.7388 56.1091 82.3271 55.6508C83.3392 54.8595 84.4345 54.1808 85.5937 53.6269C85.6373 53.6065 85.6855 53.5982 85.7334 53.6028C85.7813 53.6074 85.827 53.6248 85.8659 53.6532C85.9047 53.6816 85.9352 53.7198 85.9542 53.764C85.9732 53.8082 85.98 53.8567 85.9738 53.9044Z" fill="white"/>
<path d="M77.5279 46.7888C77.3597 47.7881 77.3688 48.8091 77.555 49.8051C77.8567 51.0117 78.5414 52.2906 80.4477 53.0688C80.4992 53.0885 80.5553 53.0924 80.6091 53.08C80.6628 53.0677 80.7116 53.0396 80.7493 52.9994C81.0055 52.7143 81.2012 52.3802 81.3245 52.0173C81.4479 51.6543 81.4965 51.2702 81.4672 50.888C81.4315 50.533 81.3462 50.1847 81.2138 49.8534C81.074 49.5192 80.8958 49.2024 80.6829 48.9093C80.5804 48.7605 80.4718 48.6187 80.3572 48.484C80.2365 48.3483 80.1129 48.2186 79.9892 48.0949C79.7498 47.8602 79.4971 47.6397 79.2321 47.4343C78.8238 47.1253 78.391 46.8499 77.9381 46.6109C77.8997 46.5935 77.8581 46.5843 77.816 46.584C77.7739 46.5837 77.7322 46.5921 77.6935 46.6089C77.6549 46.6257 77.6202 46.6503 77.5917 46.6813C77.5631 46.7123 77.5414 46.7489 77.5279 46.7888Z" fill="white"/>
<path d="M86.5378 46.635C86.761 47.9537 86.67 49.3064 86.2724 50.5834C86.1437 50.9628 85.9737 51.3269 85.7656 51.6692C85.5501 52.006 85.2881 52.3106 84.9874 52.5741C84.3025 53.1473 83.4373 53.4602 82.5442 53.4579C82.4864 53.4604 82.4293 53.4441 82.3814 53.4115C82.3336 53.3789 82.2976 53.3317 82.2788 53.2769C82.0033 52.5372 81.9789 51.7274 82.2094 50.9725C82.3159 50.6208 82.4669 50.2843 82.6588 49.971C82.848 49.646 83.0639 49.3373 83.3043 49.0481C83.425 48.9003 83.5517 48.7464 83.6814 48.6167C83.8111 48.487 83.9347 48.3392 84.0644 48.2065C84.3238 47.9441 84.5923 47.6968 84.8487 47.4705C85.3614 47.0181 85.8109 46.6561 86.1095 46.4329C86.1488 46.4049 86.1948 46.3879 86.2428 46.3836C86.2909 46.3794 86.3392 46.3879 86.3828 46.4085C86.4265 46.4291 86.4638 46.4609 86.491 46.5008C86.5183 46.5406 86.5344 46.5869 86.5378 46.635Z" fill="white"/>
<path d="M76.8164 40.9524C76.8371 41.379 76.8825 41.804 76.9521 42.2253C77.0495 42.8022 77.2187 43.3646 77.4559 43.8993C77.5923 44.1897 77.7527 44.4682 77.9354 44.7318C78.1387 45.0132 78.3781 45.2668 78.6473 45.4859C79.3108 46.0234 80.1049 46.3752 80.9487 46.5054C81.0066 46.5184 81.0671 46.5126 81.1214 46.4887C81.1757 46.4648 81.2209 46.4242 81.2504 46.3727C81.3523 46.1899 81.4371 45.9981 81.5037 45.7996C81.5708 45.6184 81.6115 45.4284 81.6244 45.2356C81.655 44.8744 81.6203 44.5106 81.5218 44.1618C81.4271 43.8159 81.2708 43.4899 81.0603 43.1996C80.8569 42.9038 80.6223 42.6308 80.3606 42.3852C79.445 41.597 78.365 41.023 77.1995 40.7051C77.158 40.6887 77.1132 40.6825 77.0689 40.6869C77.0245 40.6913 76.9819 40.7062 76.9444 40.7304C76.907 40.7546 76.8758 40.7873 76.8536 40.8259C76.8313 40.8645 76.8186 40.9079 76.8164 40.9524Z" fill="white"/>
<path d="M85.6122 38.9434C86.0914 40.1916 86.2782 41.533 86.1581 42.8646C86.1152 43.2645 86.0199 43.6569 85.8746 44.0319C85.7381 44.4072 85.5481 44.7607 85.3105 45.0816C84.7543 45.7826 83.9697 46.2661 83.0936 46.448C83.0367 46.4618 82.9768 46.4573 82.9227 46.4351C82.8685 46.4129 82.8227 46.3741 82.7919 46.3243C81.887 44.783 82.2249 43.3382 82.9397 41.9718C83.5583 40.8473 84.2987 39.7943 85.1477 38.8318C85.1808 38.7963 85.2228 38.7702 85.2693 38.7563C85.3158 38.7423 85.3652 38.7409 85.4124 38.7522C85.4597 38.7636 85.503 38.7873 85.5381 38.8209C85.5732 38.8544 85.5988 38.8967 85.6122 38.9434Z" fill="white"/>
<path d="M75.0668 35.7131C75.1575 36.1261 75.2857 36.53 75.4499 36.9196C75.5525 37.1639 75.649 37.4294 75.7877 37.6888C75.929 37.9579 76.0903 38.216 76.2704 38.4609C76.4509 38.7265 76.6626 38.9695 76.9008 39.1849C77.1584 39.4148 77.4394 39.617 77.7393 39.7881C78.4981 40.1879 79.3499 40.3774 80.2066 40.3371C80.2635 40.3363 80.3187 40.3179 80.3646 40.2844C80.4105 40.2509 80.4449 40.2039 80.463 40.1501C80.587 39.7883 80.6357 39.4051 80.6061 39.0238C80.5765 38.6426 80.4693 38.2714 80.2911 37.9331C80.1264 37.6167 79.9138 37.3278 79.6607 37.0764C79.3975 36.827 79.1083 36.6065 78.798 36.4189C78.2036 36.0614 77.5575 35.7979 76.8827 35.6377C76.3879 35.5118 75.8834 35.428 75.3745 35.3873C75.3315 35.3831 75.288 35.3888 75.2475 35.404C75.207 35.4192 75.1706 35.4434 75.1409 35.4748C75.1112 35.5063 75.0891 35.5441 75.0762 35.5854C75.0634 35.6267 75.0602 35.6704 75.0668 35.7131Z" fill="white"/>
<path d="M83.2952 32.0181C83.5847 32.5027 83.8407 33.0066 84.0613 33.5262C84.199 33.8727 84.3119 34.2285 84.3992 34.591C84.5009 34.9744 84.5685 35.366 84.6013 35.7613C84.6252 36.1642 84.608 36.5684 84.55 36.9678C84.4976 37.3651 84.3783 37.7506 84.1971 38.108C83.7897 38.9008 83.1188 39.5269 82.2998 39.8786C82.247 39.9024 82.1881 39.9091 82.1313 39.8977C82.0745 39.8864 82.0227 39.8575 81.9831 39.8152C81.4408 39.2422 81.0989 38.5087 81.0088 37.7249C80.9742 37.3582 80.9833 36.9886 81.036 36.624C81.0791 36.2511 81.1548 35.8827 81.2622 35.523C81.4804 34.8186 81.7475 34.1302 82.0615 33.4629C82.3632 32.8596 82.6437 32.3258 82.8247 32.003C82.8491 31.9616 82.8843 31.9275 82.9265 31.9043C82.9687 31.8811 83.0163 31.8697 83.0644 31.8712C83.1125 31.8728 83.1593 31.8872 83.1999 31.913C83.2405 31.9389 83.2734 31.9752 83.2952 32.0181Z" fill="white"/>
<path d="M72.1137 30.6335C72.29 31.0239 72.4999 31.3984 72.7411 31.7525C72.8979 31.9667 73.0427 32.208 73.2357 32.4342C73.4285 32.6694 73.6392 32.8893 73.8661 33.0918C74.1002 33.3119 74.3582 33.5052 74.6353 33.6679C74.935 33.8389 75.2526 33.9765 75.5824 34.0781C76.4071 34.3099 77.2787 34.3172 78.1071 34.0992C78.1623 34.0873 78.2126 34.0585 78.2509 34.017C78.2893 33.9754 78.3138 33.923 78.3212 33.8669C78.36 33.4613 78.3221 33.0521 78.2096 32.6604C78.1016 32.3136 77.9241 31.9923 77.6878 31.7163C77.4635 31.4395 77.1955 31.2012 76.8945 31.0105C76.5851 30.8214 76.2565 30.6657 75.9142 30.546C75.2584 30.3203 74.5716 30.1972 73.8782 30.181C73.3746 30.1569 72.8699 30.1781 72.3701 30.2444C72.324 30.2447 72.2787 30.2564 72.2383 30.2784C72.1978 30.3004 72.1634 30.3321 72.1381 30.3705C72.1127 30.409 72.0973 30.4531 72.093 30.4989C72.0887 30.5448 72.0958 30.591 72.1137 30.6335Z" fill="white"/>
<path d="M79.4007 25.316C79.7853 25.73 80.1392 26.1715 80.4594 26.6371C80.6687 26.9437 80.8532 27.2665 81.0114 27.6023C81.1889 27.9573 81.3362 28.3266 81.4518 28.7063C81.5593 29.0935 81.627 29.4907 81.6539 29.8917C81.6837 30.2911 81.647 30.6927 81.5453 31.0801C81.3137 31.9419 80.7876 32.6954 80.0583 33.2096C80.0097 33.2408 79.9531 33.2574 79.8954 33.2574C79.8376 33.2574 79.7811 33.2408 79.7325 33.2096C79.3913 32.9751 79.0933 32.6832 78.8518 32.347C78.6368 32.0466 78.4671 31.7163 78.348 31.3667C78.2388 31.0157 78.1699 30.6534 78.1429 30.2868C78.1112 29.9115 78.1112 29.5341 78.1429 29.1587C78.2099 28.4255 78.3278 27.6978 78.4958 26.981C78.6527 26.3204 78.8367 25.7473 78.9422 25.3974C78.959 25.3536 78.9867 25.3149 79.0229 25.285C79.059 25.2551 79.1022 25.235 79.1484 25.2268C79.1946 25.2186 79.2421 25.2225 79.2863 25.2382C79.3305 25.2538 79.37 25.2806 79.4007 25.316Z" fill="white"/>
<path d="M68.4279 26.5042C68.6781 26.8522 68.9587 27.1773 69.2665 27.4755C69.4546 27.6807 69.6561 27.8731 69.8697 28.0516C70.099 28.2356 70.3554 28.4075 70.6148 28.5764C71.1851 28.9254 71.826 29.1428 72.4909 29.2129C73.3465 29.2756 74.2036 29.1122 74.9763 28.7393C75.0284 28.7157 75.0722 28.6768 75.1018 28.6278C75.1314 28.5788 75.1455 28.522 75.1422 28.4648C75.0991 28.0664 74.9815 27.6796 74.7953 27.3247C74.7079 27.1636 74.607 27.0103 74.4937 26.8662C74.3746 26.7319 74.2444 26.6078 74.1046 26.4952C73.8299 26.2744 73.5252 26.0936 73.1997 25.9583C72.8599 25.8307 72.5067 25.7417 72.147 25.6928C71.7954 25.6436 71.4403 25.6224 71.0853 25.6295C70.7478 25.6428 70.4114 25.676 70.0778 25.729C69.5765 25.8081 69.0823 25.9271 68.5999 26.085C68.5593 26.0989 68.5222 26.1214 68.491 26.1508C68.4598 26.1803 68.4353 26.216 68.419 26.2557C68.4028 26.2954 68.3951 26.3381 68.3967 26.3809C68.3982 26.4238 68.4089 26.4658 68.4279 26.5042Z" fill="white"/>
<path d="M74.5451 19.8744C75.004 20.2035 75.4384 20.5654 75.8451 20.9572C76.1024 21.2255 76.3451 21.5074 76.572 21.8018C76.819 22.1117 77.0333 22.4462 77.2115 22.8002C77.6023 23.5059 77.7941 24.3045 77.7665 25.1107C77.7097 26.0003 77.34 26.8412 76.7228 27.4845C76.6854 27.5251 76.6362 27.5531 76.5822 27.5644C76.5281 27.5758 76.4718 27.57 76.4212 27.5478C76.0394 27.3856 75.6876 27.1602 75.3806 26.8812C75.245 26.7525 75.1208 26.6123 75.0096 26.462C74.8966 26.3209 74.7957 26.1705 74.708 26.0125C74.5271 25.6922 74.3892 25.3494 74.2977 24.993C74.1932 24.6326 74.1175 24.2645 74.0715 23.8921C74.0254 23.5137 74.0002 23.1331 73.9961 22.7519C73.9961 22.3839 73.9961 22.025 73.9961 21.6842C74.0202 21.0085 74.0806 20.4173 74.1288 20.0433C74.1367 19.9991 74.1556 19.9577 74.1839 19.9228C74.2121 19.8879 74.2487 19.8608 74.2903 19.8439C74.3319 19.8271 74.3771 19.821 74.4216 19.8263C74.4662 19.8317 74.5086 19.8482 74.5451 19.8744Z" fill="white"/>
<path d="M59.9854 13.2626C59.9246 12.9714 59.7655 12.7101 59.5348 12.5223C59.3042 12.3345 59.016 12.2316 58.7186 12.231C58.3746 12.231 58.0447 12.3677 57.8014 12.6109C57.5582 12.8541 57.4216 13.184 57.4216 13.528C57.4212 13.8278 57.5247 14.1184 57.7144 14.3504C57.9041 14.5825 58.1684 14.7417 58.4622 14.8009C58.1606 15.6394 57.3944 16.5835 56.5167 16.8128C55.4338 17.0993 54.4656 16.291 54.2756 15.2564C54.2001 14.8014 54.2062 14.3367 54.2937 13.8839L54.348 13.6457C54.7855 13.6457 55.2052 13.4718 55.5146 13.1624C55.824 12.853 55.9979 12.4333 55.9979 11.9957C55.9979 11.7791 55.9552 11.5645 55.8723 11.3643C55.7894 11.1642 55.6678 10.9823 55.5146 10.8291C55.3614 10.6759 55.1795 10.5543 54.9794 10.4714C54.7792 10.3885 54.5646 10.3458 54.348 10.3458C54.1313 10.3458 53.9167 10.3885 53.7166 10.4714C53.5164 10.5543 53.3345 10.6759 53.1813 10.8291C53.0281 10.9823 52.9065 11.1642 52.8236 11.3643C52.7407 11.5645 52.698 11.7791 52.698 11.9957C52.698 12.2816 52.7722 12.5625 52.9134 12.811C53.0545 13.0595 53.2579 13.2671 53.5034 13.4134C53.2319 14.2791 52.3542 14.8642 51.5096 15.0875C51.0062 15.2321 50.4735 15.2414 49.9653 15.1146C49.6231 15.0036 49.3139 14.8093 49.0654 14.5492C48.8169 14.2891 48.6369 13.9714 48.5416 13.6245C48.4315 13.3021 48.3587 12.9681 48.3244 12.6292C48.3244 12.5749 48.3244 12.2521 48.3003 12.2189C48.2761 12.1858 49.54 13.2807 50.6017 12.8554C51.6634 12.4301 52.3029 10.9431 50.3906 9.45602C48.4782 7.96898 46.9912 5.63135 46.9912 5.63135C46.9912 5.63135 45.5042 7.96898 43.5918 9.45602C41.6795 10.9431 42.3159 12.4331 43.3777 12.8554C44.4394 13.2777 45.6821 12.2189 45.6821 12.2189C45.6821 12.2189 45.661 12.5749 45.655 12.6292C45.6232 12.9682 45.5513 13.3024 45.4408 13.6245C45.345 13.9712 45.1648 14.2886 44.9164 14.5486C44.668 14.8086 44.359 15.0031 44.0171 15.1146C43.5089 15.2414 42.9762 15.2321 42.4728 15.0875C41.5408 14.8431 40.5665 14.1524 40.4157 13.1329C40.5526 13.0392 40.6755 12.9264 40.7806 12.7981C40.931 12.665 41.0302 12.4837 41.0611 12.2853C41.118 12.1161 41.1475 11.939 41.1486 11.7605C41.1487 11.327 40.9782 10.911 40.6739 10.6023C40.3697 10.2935 39.9562 10.1169 39.5228 10.1106C39.0853 10.1106 38.6656 10.2844 38.3562 10.5938C38.0468 10.9032 37.8729 11.3229 37.8729 11.7605C37.8729 12.1981 38.0468 12.6177 38.3562 12.9271C38.6656 13.2366 39.0853 13.4104 39.5228 13.4104H39.6073C39.6495 13.5793 39.7159 13.8628 39.7219 13.887C39.8063 14.34 39.8124 14.8042 39.74 15.2594C39.55 16.294 38.5787 17.1023 37.4959 16.8158C36.6091 16.5835 35.8218 15.6093 35.5413 14.7707C35.8044 14.6873 36.0341 14.5221 36.1968 14.2991C36.3596 14.0761 36.4469 13.8071 36.4462 13.531C36.4454 13.1873 36.3085 12.8579 36.0655 12.6148C35.8224 12.3717 35.4929 12.2348 35.1492 12.234C34.8671 12.2345 34.5929 12.327 34.3681 12.4973C34.1433 12.6677 33.9802 12.9067 33.9035 13.1781C33.3765 12.7525 32.7751 12.4283 32.1299 12.222C32.1721 12.222 32.3109 12.4241 32.338 12.4542C32.525 12.6654 32.7181 12.8765 32.893 13.0967C33.7005 14.0254 34.4082 15.0364 35.0044 16.113C35.7157 17.5631 36.1795 19.1219 36.3768 20.7249C40.6268 18.8126 47.0002 18.8126 47.0002 18.8126C47.0002 18.8126 53.3737 18.8126 57.6237 20.7249C57.8196 19.1216 58.2835 17.5626 58.9961 16.113C59.5922 15.0363 60.2999 14.0254 61.1075 13.0967C61.2854 12.8765 61.4755 12.6654 61.6655 12.4542C61.6926 12.4241 61.8284 12.222 61.8736 12.222C61.1828 12.4434 60.5416 12.7968 59.9854 13.2626Z" fill="#FFA235"/>
<path d="M67.2724 18.0858C67.2256 18.0793 67.1779 18.0824 67.1323 18.0948C67.0866 18.1073 67.044 18.1289 67.007 18.1582C66.9442 18.2296 66.9117 18.3227 66.9165 18.4176C67.0643 20.0706 67.9209 25.3129 72.9099 24.5679H72.9551C72.9624 24.5544 72.9685 24.5402 72.9732 24.5256C74.0832 19.588 68.9163 18.3513 67.2724 18.0858Z" fill="white"/>
<path d="M27.2277 18.0857C27.275 18.0791 27.3232 18.0821 27.3693 18.0945C27.4154 18.107 27.4586 18.1286 27.4962 18.158C27.5275 18.1932 27.5513 18.2343 27.5663 18.2788C27.5814 18.3234 27.5873 18.3705 27.5837 18.4174C27.4389 20.0704 26.5822 25.3127 21.5903 24.5677H21.548C21.5407 24.5542 21.5347 24.54 21.5299 24.5254C20.423 19.5878 25.5929 18.3511 27.2277 18.0857Z" fill="white"/>
</g>
<defs>
<clipPath id="clip0_3314_25394">
<rect width="94" height="94" fill="white"/>
</clipPath>
</defs>
</svg>
